<svg width="88" height="88" viewBox="0 0 88 88" fill="none" xmlns="http://www.w3.org/2000/svg">
<path d="M78.9367 34.7585C79.2187 34.7585 79.4892 34.6465 79.6886 34.447C79.888 34.2476 80 33.9772 80 33.6952C80 33.4132 79.888 33.1427 79.6886 32.9433C79.4892 32.7439 79.2187 32.6319 78.9367 32.6319H74.6228V24.4537H78.9367C79.2187 24.4537 79.4892 24.3416 79.6886 24.1422C79.888 23.9428 80 23.6724 80 23.3904C80 23.1084 79.888 22.8379 79.6886 22.6385C79.4892 22.4391 79.2187 22.3271 78.9367 22.3271H74.6228V14.4405C74.6226 14.1586 74.5105 13.8882 74.3112 13.6888C74.1118 13.4895 73.8414 13.3774 73.5595 13.3772H65.6729V9.06329C65.6729 8.78129 65.5609 8.51084 65.3615 8.31143C65.1621 8.11203 64.8916 8 64.6096 8C64.3276 8 64.0572 8.11203 63.8578 8.31143C63.6584 8.51084 63.5463 8.78129 63.5463 9.06329V13.3772H55.3681V9.06329C55.3681 8.78129 55.2561 8.51084 55.0567 8.31143C54.8573 8.11203 54.5868 8 54.3048 8C54.0228 8 53.7524 8.11203 53.5529 8.31143C53.3535 8.51084 53.2415 8.78129 53.2415 9.06329V13.3772H45.0633V9.06329C45.0633 8.78129 44.9513 8.51084 44.7519 8.31143C44.5525 8.11203 44.282 8 44 8C43.718 8 43.4475 8.11203 43.2481 8.31143C43.0487 8.51084 42.9367 8.78129 42.9367 9.06329V13.3772H34.7585V9.06329C34.7585 8.78129 34.6465 8.51084 34.447 8.31143C34.2476 8.11203 33.9772 8 33.6952 8C33.4132 8 33.1427 8.11203 32.9433 8.31143C32.7439 8.51084 32.6319 8.78129 32.6319 9.06329V13.3772H24.4537V9.06329C24.4537 8.78129 24.3416 8.51084 24.1422 8.31143C23.9428 8.11203 23.6724 8 23.3904 8C23.1084 8 22.8379 8.11203 22.6385 8.31143C22.4391 8.51084 22.3271 8.78129 22.3271 9.06329V13.3772H14.4405C14.1586 13.3774 13.8882 13.4895 13.6888 13.6888C13.4895 13.8882 13.3774 14.1586 13.3772 14.4405V22.3271H9.06329C8.78129 22.3271 8.51084 22.4391 8.31143 22.6385C8.11203 22.8379 8 23.1084 8 23.3904C8 23.6724 8.11203 23.9428 8.31143 24.1422C8.51084 24.3416 8.78129 24.4537 9.06329 24.4537H13.3772V32.6319H9.06329C8.78129 32.6319 8.51084 32.7439 8.31143 32.9433C8.11203 33.1427 8 33.4132 8 33.6952C8 33.9772 8.11203 34.2476 8.31143 34.447C8.51084 34.6465 8.78129 34.7585 9.06329 34.7585H13.3772V42.9367H9.06329C8.78129 42.9367 8.51084 43.0487 8.31143 43.2481C8.11203 43.4475 8 43.718 8 44C8 44.282 8.11203 44.5525 8.31143 44.7519C8.51084 44.9513 8.78129 45.0633 9.06329 45.0633H13.3772V53.2415H9.06329C8.78129 53.2415 8.51084 53.3535 8.31143 53.5529C8.11203 53.7524 8 54.0228 8 54.3048C8 54.5868 8.11203 54.8573 8.31143 55.0567C8.51084 55.2561 8.78129 55.3681 9.06329 55.3681H13.3772V63.5463H9.06329C8.78129 63.5463 8.51084 63.6584 8.31143 63.8578C8.11203 64.0572 8 64.3276 8 64.6096C8 64.8916 8.11203 65.1621 8.31143 65.3615C8.51084 65.5609 8.78129 65.6729 9.06329 65.6729H13.3772V73.5595C13.3774 73.8414 13.4895 74.1118 13.6888 74.3112C13.8882 74.5105 14.1586 74.6226 14.4405 74.6228H22.3271V78.9367C22.3271 79.2187 22.4391 79.4892 22.6385 79.6886C22.8379 79.888 23.1084 80 23.3904 80C23.6724 80 23.9428 79.888 24.1422 79.6886C24.3416 79.4892 24.4537 79.2187 24.4537 78.9367V74.6228H32.6319V78.9367C32.6319 79.2187 32.7439 79.4892 32.9433 79.6886C33.1427 79.888 33.4132 80 33.6952 80C33.9772 80 34.2476 79.888 34.447 79.6886C34.6465 79.4892 34.7585 79.2187 34.7585 78.9367V74.6228H42.9367V78.9367C42.9367 79.2187 43.0487 79.4892 43.2481 79.6886C43.4475 79.888 43.718 80 44 80C44.282 80 44.5525 79.888 44.7519 79.6886C44.9513 79.4892 45.0633 79.2187 45.0633 78.9367V74.6228H53.2415V78.9367C53.2415 79.2187 53.3535 79.4892 53.5529 79.6886C53.7524 79.888 54.0228 80 54.3048 80C54.5868 80 54.8573 79.888 55.0567 79.6886C55.2561 79.4892 55.3681 79.2187 55.3681 78.9367V74.6228H63.5463V78.9367C63.5463 79.2187 63.6584 79.4892 63.8578 79.6886C64.0572 79.888 64.3276 80 64.6096 80C64.8916 80 65.1621 79.888 65.3615 79.6886C65.5609 79.4892 65.6729 79.2187 65.6729 78.9367V74.6228H73.5595C73.8414 74.6226 74.1118 74.5105 74.3112 74.3112C74.5105 74.1118 74.6226 73.8414 74.6228 73.5595V65.6729H78.9367C79.2187 65.6729 79.4892 65.5609 79.6886 65.3615C79.888 65.1621 80 64.8916 80 64.6096C80 64.3276 79.888 64.0572 79.6886 63.8578C79.4892 63.6584 79.2187 63.5463 78.9367 63.5463H74.6228V55.3681H78.9367C79.2187 55.3681 79.4892 55.2561 79.6886 55.0567C79.888 54.8573 80 54.5868 80 54.3048C80 54.0228 79.888 53.7524 79.6886 53.5529C79.4892 53.3535 79.2187 53.2415 78.9367 53.2415H74.6228V45.0633H78.9367C79.2187 45.0633 79.4892 44.9513 79.6886 44.7519C79.888 44.5525 80 44.282 80 44C80 43.718 79.888 43.4475 79.6886 43.2481C79.4892 43.0487 79.2187 42.9367 78.9367 42.9367H74.6228V34.7585H78.9367ZM72.4962 72.4962H15.5038V15.5038H72.4962V72.4962Z" fill="#00CEB3"/>
<path d="M68.0917 61.5593C67.8098 61.5595 67.5394 61.6716 67.34 61.8709C67.1407 62.0703 67.0286 62.3407 67.0284 62.6226V67.0277H62.6233C62.3413 67.0277 62.0709 67.1397 61.8715 67.3391C61.6721 67.5385 61.5601 67.809 61.5601 68.091C61.5601 68.373 61.6721 68.6434 61.8715 68.8428C62.0709 69.0422 62.3413 69.1543 62.6233 69.1543H68.0917C68.3737 69.1541 68.644 69.042 68.8434 68.8427C69.0428 68.6433 69.1548 68.3729 69.155 68.091V62.6226C69.1548 62.3407 69.0428 62.0703 68.8434 61.8709C68.644 61.6716 68.3737 61.5595 68.0917 61.5593V61.5593Z" fill="#00CEB3"/>
<path d="M19.9085 69.1543H25.3769C25.6589 69.1543 25.9293 69.0422 26.1287 68.8428C26.3281 68.6434 26.4401 68.373 26.4401 68.091C26.4401 67.809 26.3281 67.5385 26.1287 67.3391C25.9293 67.1397 25.6589 67.0277 25.3769 67.0277H20.9718V62.6226C20.9718 62.3406 20.8598 62.0702 20.6604 61.8708C20.461 61.6713 20.1905 61.5593 19.9085 61.5593C19.6265 61.5593 19.3561 61.6713 19.1566 61.8708C18.9572 62.0702 18.8452 62.3406 18.8452 62.6226V68.091C18.8454 68.3729 18.9575 68.6433 19.1568 68.8427C19.3562 69.042 19.6266 69.1541 19.9085 69.1543V69.1543Z" fill="#00CEB3"/>
<path d="M62.6233 20.9723H67.0284V25.3773C67.0284 25.6593 67.1404 25.9298 67.3398 26.1292C67.5392 26.3286 67.8097 26.4406 68.0917 26.4406C68.3737 26.4406 68.6442 26.3286 68.8436 26.1292C69.043 25.9298 69.155 25.6593 69.155 25.3773V19.909C69.1548 19.627 69.0428 19.3567 68.8434 19.1573C68.644 18.9579 68.3737 18.8459 68.0917 18.8457H62.6233C62.3413 18.8457 62.0709 18.9577 61.8715 19.1571C61.6721 19.3565 61.5601 19.627 61.5601 19.909C61.5601 20.191 61.6721 20.4614 61.8715 20.6609C62.0709 20.8603 62.3413 20.9723 62.6233 20.9723V20.9723Z" fill="#00CEB3"/>
<path d="M19.9085 26.4406C20.1905 26.4405 20.4608 26.3284 20.6602 26.129C20.8596 25.9297 20.9716 25.6593 20.9718 25.3773V20.9723H25.3769C25.6589 20.9723 25.9293 20.8603 26.1287 20.6609C26.3281 20.4614 26.4401 20.191 26.4401 19.909C26.4401 19.627 26.3281 19.3565 26.1287 19.1571C25.9293 18.9577 25.6589 18.8457 25.3769 18.8457H19.9085C19.6266 18.8459 19.3562 18.9579 19.1568 19.1573C18.9575 19.3567 18.8454 19.627 18.8452 19.909V25.3773C18.8454 25.6593 18.9575 25.9297 19.1568 26.129C19.3562 26.3284 19.6266 26.4405 19.9085 26.4406V26.4406Z" fill="#00CEB3"/>
<path d="M31.7877 50.9115C32.7307 50.9086 33.6633 50.7142 34.5288 50.3399C35.3944 49.9657 36.1748 49.4195 36.8229 48.7345L35.1125 47.1395C34.7015 47.6212 34.1921 48.0092 33.6186 48.2776C33.0452 48.546 32.4209 48.6885 31.7877 48.6956C30.5685 48.6563 29.4124 48.1444 28.5639 47.2682C27.7153 46.3919 27.2409 45.2199 27.2409 44.0001C27.2409 42.7803 27.7153 41.6083 28.5639 40.732C29.4124 39.8557 30.5685 39.3438 31.7877 39.3046C32.418 39.3116 33.0395 39.4542 33.6098 39.7227C34.1801 39.9912 34.686 40.3793 35.093 40.8606L36.8229 39.2469C36.0373 38.3971 35.0521 37.757 33.9565 37.3846C32.8608 37.0122 31.6896 36.9193 30.5489 37.1143C29.4083 37.3093 28.3344 37.7861 27.4248 38.5014C26.5151 39.2166 25.7985 40.1477 25.3399 41.2102C24.8813 42.2726 24.6954 43.4328 24.7988 44.5853C24.9023 45.7379 25.292 46.8463 25.9324 47.8101C26.5729 48.7739 27.4439 49.5625 28.4665 50.1043C29.489 50.6461 30.6306 50.924 31.7877 50.9127V50.9115Z" fill="#00CEB3"/>
<path d="M41.1226 46.1873H44.5057C47.3614 46.1873 49.502 44.3596 49.502 41.7518C49.502 39.1441 47.3639 37.3164 44.5057 37.3164H38.6929V50.678H41.1233L41.1226 46.1873ZM41.1226 39.5572H44.2335C45.8862 39.5572 47.0333 40.3933 47.0333 41.7543C47.0333 43.1153 45.8838 43.9513 44.2335 43.9513H41.1226V39.5572Z" fill="#00CEB3"/>
<path d="M57.338 50.9115C58.1237 50.9441 58.9077 50.8127 59.6399 50.5258C60.3721 50.2389 61.0365 49.8027 61.5909 49.2449C62.1453 48.6871 62.5775 48.0201 62.86 47.2861C63.1425 46.5522 63.269 45.7675 63.2317 44.982V37.322H60.8177V44.9042C60.8177 47.1207 59.3795 48.7144 57.338 48.7144C55.3159 48.7144 53.8747 47.1207 53.8747 44.9042V37.322H51.4443V44.982C51.4086 45.7671 51.5364 46.5511 51.8195 47.2842C52.1025 48.0174 52.5348 48.6838 53.0888 49.2412C53.6429 49.7986 54.3066 50.2349 55.0381 50.5224C55.7695 50.8099 56.5527 50.9424 57.338 50.9115V50.9115Z" fill="#00CEB3"/>
</svg>
