<svg width="88" height="88" viewBox="0 0 88 88" fill="none" xmlns="http://www.w3.org/2000/svg">
<path d="M81.9839 21.3333H72.6129V20C72.6129 17.7947 70.811 16 68.5968 16H43.1613C40.9471 16 39.1452 17.7947 39.1452 20V25.3333H38.5227L36.2428 21.9267C35.9938 21.556 35.5762 21.3333 35.129 21.3333H7.01613C4.8019 21.3333 3 23.128 3 25.3333V60C3 62.2053 4.8019 64 7.01613 64H16.3871V70.6667C16.3871 71.4027 16.9855 72 17.7258 72H60.5645C61.3048 72 61.9032 71.4027 61.9032 70.6667V64H81.9839C84.1981 64 86 62.2053 86 60V25.3333C86 23.128 84.1981 21.3333 81.9839 21.3333ZM41.8226 20C41.8226 19.2653 42.4223 18.6667 43.1613 18.6667H68.5968C69.3357 18.6667 69.9355 19.2653 69.9355 20V21.3333H53.871C53.4238 21.3333 53.0062 21.556 52.7572 21.9267L50.4773 25.3333H41.8226V20ZM59.2258 69.3333H19.0645V64H21.7419V66.6667H24.4194V64H27.0968V66.6667H29.7742V64H32.4516V66.6667H35.129V64H37.8065V66.6667H40.4839V64H43.1613V66.6667H45.8387V64H48.5161V66.6667H51.1935V64H53.871V66.6667H56.5484V64H59.2258V69.3333ZM83.3226 60C83.3226 60.7347 82.7228 61.3333 81.9839 61.3333H7.01613C6.27716 61.3333 5.67742 60.7347 5.67742 60V25.3333C5.67742 24.5987 6.27716 24 7.01613 24H34.4128L36.6926 27.4067C36.9416 27.7773 37.3593 28 37.8065 28H51.1935C51.6407 28 52.0584 27.7773 52.3074 27.4067L54.5872 24H81.9839C82.7228 24 83.3226 24.5987 83.3226 25.3333V60Z" fill="#00CEB3"/>
<path d="M24.419 26.6667C15.5608 26.6667 8.35449 33.8441 8.35449 42.6667C8.35449 51.4894 15.5608 58.6667 24.419 58.6667C33.2773 58.6667 40.4835 51.4894 40.4835 42.6667C40.4835 33.8441 33.2773 26.6667 24.419 26.6667ZM24.419 41.3334C25.158 41.3334 25.7577 41.9321 25.7577 42.6667C25.7577 43.4014 25.158 44.0001 24.419 44.0001C23.68 44.0001 23.0803 43.4014 23.0803 42.6667C23.0803 41.9321 23.68 41.3334 24.419 41.3334ZM25.1192 38.7374C25.0937 38.7334 25.0656 38.7334 25.0402 38.7294C23.7764 37.4627 23.0803 35.7854 23.0803 34.0001C23.0803 32.2534 23.755 30.6174 24.9652 29.3614C27.3789 29.4587 29.6253 30.1907 31.5476 31.4014C30.1246 31.8494 28.818 32.6294 27.7323 33.7107C26.3387 35.0974 25.4458 36.8427 25.1192 38.7374ZM22.1231 39.3934C22.1004 39.4094 22.0816 39.4294 22.0602 39.4454C20.269 39.4387 18.5863 38.7427 17.3185 37.4814C16.0802 36.2481 15.3961 34.6174 15.3586 32.8801C17.0521 31.3241 19.1418 30.1961 21.4645 29.6721C20.7737 30.9921 20.4029 32.4667 20.4029 34.0001C20.4029 35.9601 21.0093 37.8254 22.1231 39.3934ZM15.4256 39.3667C16.8178 40.7534 18.5715 41.6441 20.4738 41.9694C20.4698 41.9947 20.4698 42.0227 20.4658 42.0494C19.194 43.3054 17.5099 44.0001 15.7174 44.0001C13.965 44.0001 12.3211 43.3281 11.06 42.1227C11.1578 39.7187 11.8927 37.4814 13.1083 35.5681C13.5567 36.9854 14.3399 38.2854 15.4256 39.3667ZM23.7189 46.5961C23.7443 46.6001 23.7724 46.6001 23.7979 46.6041C25.0616 47.8707 25.7577 49.5481 25.7577 51.3334C25.7577 53.0801 25.083 54.7161 23.8728 55.9721C21.4591 55.8747 19.2128 55.1428 17.2904 53.9321C18.7134 53.4841 20.02 52.7041 21.1057 51.6227C22.4993 50.2361 23.3922 48.4907 23.7189 46.5961ZM26.7149 45.9401C26.7377 45.9241 26.7564 45.9041 26.7778 45.8881C28.569 45.8947 30.2518 46.5907 31.5195 47.8521C32.7578 49.0854 33.4419 50.7161 33.4794 52.4534C31.7859 54.0094 29.6962 55.1374 27.3735 55.6614C28.0643 54.3414 28.4351 52.8667 28.4351 51.3334C28.4351 49.3734 27.8287 47.5081 26.7149 45.9401ZM33.4125 45.9667C32.0202 44.5801 30.2665 43.6894 28.3642 43.3641C28.3682 43.3387 28.3682 43.3107 28.3722 43.2841C29.644 42.0281 31.3281 41.3334 33.1206 41.3334C34.873 41.3334 36.5169 42.0054 37.778 43.2107C37.6803 45.6147 36.9453 47.8521 35.7298 49.7654C35.2813 48.3481 34.4982 47.0481 33.4125 45.9667ZM33.1206 38.6667C31.1527 38.6667 29.2812 39.2721 27.7055 40.3801C27.6895 40.3574 27.6694 40.3387 27.6533 40.3174C27.66 38.5334 28.3575 36.8587 29.6253 35.5961C30.8636 34.3627 32.5008 33.6814 34.2465 33.6441C35.8088 35.3307 36.9413 37.4121 37.4674 39.7254C36.1408 39.0361 34.6588 38.6667 33.1206 38.6667ZM11.3706 45.6081C12.6973 46.2974 14.1792 46.6667 15.7174 46.6667C17.6853 46.6667 19.5568 46.0614 21.1325 44.9534C21.1485 44.9761 21.1686 44.9947 21.1847 45.0161C21.178 46.8001 20.4805 48.4748 19.2128 49.7374C17.9745 50.9708 16.3372 51.6521 14.5915 51.6894C13.0293 50.0041 11.8967 47.9228 11.3706 45.6081Z" fill="#00CEB3"/>
<path d="M64.5806 26.6667C55.7224 26.6667 48.5161 33.8441 48.5161 42.6667C48.5161 51.4894 55.7224 58.6667 64.5806 58.6667C73.4389 58.6667 80.6451 51.4894 80.6451 42.6667C80.6451 33.8441 73.4389 26.6667 64.5806 26.6667ZM64.5806 41.3334C65.3196 41.3334 65.9193 41.9321 65.9193 42.6667C65.9193 43.4014 65.3196 44.0001 64.5806 44.0001C63.8417 44.0001 63.2419 43.4014 63.2419 42.6667C63.2419 41.9321 63.8417 41.3334 64.5806 41.3334ZM65.2808 38.7374C65.2553 38.7334 65.2272 38.7334 65.2018 38.7294C63.9381 37.4627 63.2419 35.7854 63.2419 34.0001C63.2419 32.2534 63.9166 30.6174 65.1268 29.3614C67.5405 29.4587 69.7869 30.1907 71.7093 31.4014C70.2862 31.8494 68.9796 32.6294 67.8939 33.7107C66.5003 35.0974 65.6074 36.8427 65.2808 38.7374ZM62.2847 39.3934C62.262 39.4094 62.2432 39.4294 62.2218 39.4454C60.4306 39.4387 58.7479 38.7427 57.4801 37.4814C56.2418 36.2481 55.5577 34.6174 55.5202 32.8801C57.2137 31.3241 59.3034 30.1961 61.6261 29.6721C60.9353 30.9921 60.5645 32.4667 60.5645 34.0001C60.5645 35.9601 61.1709 37.8254 62.2847 39.3934ZM55.5872 39.3667C56.9794 40.7534 58.7331 41.6441 60.6355 41.9694C60.6314 41.9947 60.6314 42.0227 60.6274 42.0494C59.3556 43.3054 57.6715 44.0001 55.879 44.0001C54.1266 44.0001 52.4827 43.3281 51.2216 42.1227C51.3194 39.7187 52.0543 37.4814 53.2699 35.5681C53.7183 36.9854 54.5015 38.2854 55.5872 39.3667ZM63.8805 46.5961C63.9059 46.6001 63.934 46.6001 63.9595 46.6041C65.2232 47.8707 65.9193 49.5481 65.9193 51.3334C65.9193 53.0801 65.2446 54.7161 64.0344 55.9721C61.6207 55.8748 59.3744 55.1428 57.452 53.9321C58.875 53.4841 60.1816 52.7041 61.2673 51.6227C62.6609 50.2361 63.5538 48.4907 63.8805 46.5961ZM66.8765 45.9401C66.8993 45.9241 66.918 45.9041 66.9394 45.8881C68.7306 45.8947 70.4134 46.5907 71.6811 47.8521C72.9195 49.0854 73.6035 50.7161 73.641 52.4534C71.9476 54.0094 69.8578 55.1374 67.5352 55.6614C68.2259 54.3414 68.5968 52.8667 68.5968 51.3334C68.5968 49.3734 67.9903 47.5081 66.8765 45.9401ZM73.5741 45.9667C72.1818 44.5801 70.4281 43.6894 68.5258 43.3641C68.5298 43.3387 68.5298 43.3107 68.5338 43.2841C69.8056 42.0281 71.4897 41.3334 73.2822 41.3334C75.0346 41.3334 76.6785 42.0054 77.9396 43.2107C77.8419 45.6147 77.1069 47.8521 75.8914 49.7654C75.4429 48.3481 74.6598 47.0481 73.5741 45.9667ZM73.2822 38.6667C71.3143 38.6667 69.4428 39.2721 67.8672 40.3801C67.8511 40.3574 67.831 40.3387 67.815 40.3174C67.8216 38.5334 68.5191 36.8587 69.7869 35.5961C71.0252 34.3627 72.6624 33.6814 74.4081 33.6441C75.9704 35.3307 77.1029 37.4121 77.629 39.7254C76.3024 39.0361 74.8204 38.6667 73.2822 38.6667ZM51.5322 45.6081C52.8589 46.2974 54.3408 46.6667 55.879 46.6667C57.8469 46.6667 59.7184 46.0614 61.2941 44.9534C61.3102 44.9761 61.3302 44.9948 61.3463 45.0161C61.3396 46.8001 60.6421 48.4748 59.3744 49.7374C58.1361 50.9708 56.4988 51.6521 54.7532 51.6894C53.1909 50.0041 52.0583 47.9227 51.5322 45.6081Z" fill="#00CEB3"/>
<path d="M8.35449 26.6667H11.0319V29.3334H8.35449V26.6667Z" fill="#00CEB3"/>
<path d="M8.35449 56H11.0319V58.6667H8.35449V56Z" fill="#00CEB3"/>
<path d="M77.9678 26.6667H80.6452V29.3334H77.9678V26.6667Z" fill="#00CEB3"/>
<path d="M77.9678 56H80.6452V58.6667H77.9678V56Z" fill="#00CEB3"/>
</svg>
