<svg width="88" height="88" viewBox="0 0 88 88" fill="none" xmlns="http://www.w3.org/2000/svg">
<path d="M84.6 36.2332C85.3731 36.2332 86 35.6064 86 34.8332V29.2333C86 28.4601 85.3731 27.8333 84.6 27.8333H3.4C2.62685 27.8333 2 28.4601 2 29.2333V34.8332C2 35.6064 2.62685 36.2332 3.4 36.2332C4.17315 36.2332 4.8 36.8601 4.8 37.6332C4.8 38.4064 4.17315 39.0332 3.4 39.0332C2.62685 39.0332 2 39.6601 2 40.4332V57.2332C2 58.0064 2.62685 58.6332 3.4 58.6332H4.8V61.4332C4.8 62.2064 5.42685 62.8332 6.2 62.8332H31.4C32.1731 62.8332 32.8 62.2064 32.8 61.4332V58.6332H35.6V61.4332C35.6 62.2064 36.2268 62.8332 37 62.8332H81.8C82.5731 62.8332 83.2 62.2064 83.2 61.4332V58.6332H84.6C85.3731 58.6332 86 58.0064 86 57.2332V40.4332C86 39.6601 85.3731 39.0332 84.6 39.0332C83.8268 39.0332 83.2 38.4064 83.2 37.6332C83.2 36.8601 83.8268 36.2332 84.6 36.2332ZM30 60.0332H7.6V58.6332H30V60.0332ZM80.4 60.0332H38.4V58.6332H80.4V60.0332ZM83.2 33.6726C81.0127 34.4446 79.8652 36.8436 80.6371 39.031C81.0599 40.2288 82.0021 41.171 83.2 41.5938V55.8332H4.8V41.5938C4.8476 41.577 4.8896 41.5518 4.94 41.5336C5.0184 41.5028 5.0926 41.4678 5.1682 41.4314C5.32325 41.359 5.47375 41.2771 5.619 41.1864C5.6876 41.1444 5.759 41.1024 5.822 41.0562C5.98737 40.9388 6.144 40.8097 6.291 40.6698C6.3218 40.6404 6.3568 40.6152 6.3862 40.5858C6.55717 40.4128 6.7131 40.2253 6.8524 40.0258C6.8902 39.9698 6.9224 39.9082 6.9588 39.8508C7.05487 39.6984 7.1408 39.5399 7.2164 39.3762C7.2514 39.2992 7.2822 39.2222 7.313 39.1424C7.37652 38.9781 7.42902 38.8098 7.4698 38.6384C7.4894 38.5614 7.5118 38.4872 7.5258 38.4088C7.62992 37.9008 7.62992 37.3769 7.5258 36.8688C7.5118 36.7904 7.4894 36.7162 7.4698 36.6392C7.42902 36.4679 7.37652 36.2996 7.313 36.1352C7.2822 36.0554 7.2514 35.977 7.2164 35.9C7.14045 35.7371 7.05452 35.5791 6.9588 35.4268C6.9224 35.3694 6.8902 35.3078 6.8524 35.2518C6.7131 35.0523 6.55717 34.8649 6.3862 34.6918C6.3568 34.6624 6.3218 34.6372 6.291 34.6078C6.144 34.468 5.98737 34.3389 5.822 34.2214C5.7562 34.1738 5.682 34.1332 5.619 34.0912C5.47375 34.0006 5.32325 33.9187 5.1682 33.8462C5.0926 33.8112 5.0184 33.7748 4.94 33.744C4.8938 33.7258 4.8518 33.7007 4.8 33.6839V30.6333H83.2V33.6726Z" fill="#00CEB3"/>
<path d="M48.4 32.8665H39.6C38.79 32.8665 38.1333 33.5232 38.1333 34.3331V48.9998C38.1333 49.8098 38.79 50.4665 39.6 50.4665H48.4C49.2099 50.4665 49.8666 49.8098 49.8666 48.9998V34.3331C49.8666 33.5232 49.2099 32.8665 48.4 32.8665ZM46.9333 47.5331H41.0666V35.7998H46.9333V47.5331Z" fill="#00CEB3"/>
<path d="M63.0665 32.8665H54.2665C53.4565 32.8665 52.7998 33.5232 52.7998 34.3331V48.9998C52.7998 49.8098 53.4565 50.4665 54.2665 50.4665H63.0665C63.8764 50.4665 64.5331 49.8098 64.5331 48.9998V34.3331C64.5331 33.5232 63.8764 32.8665 63.0665 32.8665ZM61.5998 47.5331H55.7331V35.7998H61.5998V47.5331Z" fill="#00CEB3"/>
<path d="M19.0665 32.8665H10.2665C9.4565 32.8665 8.7998 33.5232 8.7998 34.3331V48.9998C8.7998 49.8098 9.4565 50.4665 10.2665 50.4665H19.0665C19.8764 50.4665 20.5331 49.8098 20.5331 48.9998V34.3331C20.5331 33.5232 19.8764 32.8665 19.0665 32.8665ZM17.5998 47.5331H11.7331V35.7998H17.5998V47.5331Z" fill="#00CEB3"/>
<path d="M33.734 32.8665H24.934C24.124 32.8665 23.4673 33.5232 23.4673 34.3331V48.9998C23.4673 49.8098 24.124 50.4665 24.934 50.4665H33.734C34.5439 50.4665 35.2006 49.8098 35.2006 48.9998V34.3331C35.2006 33.5232 34.5439 32.8665 33.734 32.8665ZM32.2673 47.5331H26.4006V35.7998H32.2673V47.5331Z" fill="#00CEB3"/>
<path d="M77.734 32.8665H68.934C68.124 32.8665 67.4673 33.5232 67.4673 34.3331V48.9998C67.4673 49.8098 68.124 50.4665 68.934 50.4665H77.734C78.5439 50.4665 79.2006 49.8098 79.2006 48.9998V34.3331C79.2006 33.5232 78.5439 32.8665 77.734 32.8665ZM76.2673 47.5331H70.4006V35.7998H76.2673V47.5331Z" fill="#00CEB3"/>
</svg>
