<svg width="88" height="88" viewBox="0 0 88 88" fill="none" xmlns="http://www.w3.org/2000/svg">
<path d="M20.1348 12V76H67.8645V12H20.1348ZM64.1145 72.25H23.8848V15.75H64.1145V72.25Z" fill="#00CEB3"/>
<path d="M51.4996 19.5H27.6348V30.75H51.4996V19.5ZM47.7496 27H31.3848V23.25H47.7496V27Z" fill="#00CEB3"/>
<path d="M43.9996 68.5C53.0233 68.5 60.3645 61.1588 60.3645 52.1351C60.3645 43.1115 53.0233 35.7703 43.9996 35.7703C34.976 35.7703 27.6348 43.1115 27.6348 52.1351C27.6348 61.1588 34.976 68.5 43.9996 68.5V68.5ZM43.9996 39.5203C50.9555 39.5203 56.6145 45.1793 56.6145 52.1351C56.6145 59.091 50.9555 64.75 43.9996 64.75C37.0438 64.75 31.3848 59.091 31.3848 52.1351C31.3848 45.1793 37.0438 39.5203 43.9996 39.5203V39.5203Z" fill="#00CEB3"/>
<path d="M42.125 50.26H45.875V54.01H42.125V50.26Z" fill="#00CEB3"/>
</svg>
