<svg width="37" height="37" viewBox="0 0 37 37" fill="none" xmlns="http://www.w3.org/2000/svg">
<path d="M34.3065 9.28571H30.3548V8.71429C30.3548 7.76914 29.595 7 28.6613 7H17.9355C17.0018 7 16.2419 7.76914 16.2419 8.71429V11H15.9794L15.0181 9.54C14.9131 9.38114 14.7369 9.28571 14.5484 9.28571H2.69355C1.75984 9.28571 1 10.0549 1 11V25.8571C1 26.8023 1.75984 27.5714 2.69355 27.5714H6.64516V30.4286C6.64516 30.744 6.8975 31 7.20968 31H25.2742C25.5864 31 25.8387 30.744 25.8387 30.4286V27.5714H34.3065C35.2402 27.5714 36 26.8023 36 25.8571V11C36 10.0549 35.2402 9.28571 34.3065 9.28571ZM17.371 8.71429C17.371 8.39943 17.6239 8.14286 17.9355 8.14286H28.6613C28.9729 8.14286 29.2258 8.39943 29.2258 8.71429V9.28571H22.4516C22.2631 9.28571 22.0869 9.38114 21.9819 9.54L21.0206 11H17.371V8.71429ZM24.7097 29.8571H7.77419V27.5714H8.90323V28.7143H10.0323V27.5714H11.1613V28.7143H12.2903V27.5714H13.4194V28.7143H14.5484V27.5714H15.6774V28.7143H16.8065V27.5714H17.9355V28.7143H19.0645V27.5714H20.1935V28.7143H21.3226V27.5714H22.4516V28.7143H23.5806V27.5714H24.7097V29.8571ZM34.871 25.8571C34.871 26.172 34.6181 26.4286 34.3065 26.4286H2.69355C2.38194 26.4286 2.12903 26.172 2.12903 25.8571V11C2.12903 10.6851 2.38194 10.4286 2.69355 10.4286H14.2464L15.2077 11.8886C15.3127 12.0474 15.4889 12.1429 15.6774 12.1429H21.3226C21.5111 12.1429 21.6873 12.0474 21.7923 11.8886L22.7536 10.4286H34.3065C34.6181 10.4286 34.871 10.6851 34.871 11V25.8571Z" fill="white"/>
<path d="M10.0322 11.5714C6.29685 11.5714 3.25806 14.6474 3.25806 18.4286C3.25806 22.2097 6.29685 25.2857 10.0322 25.2857C13.7677 25.2857 16.8064 22.2097 16.8064 18.4286C16.8064 14.6474 13.7677 11.5714 10.0322 11.5714ZM10.0322 17.8571C10.3439 17.8571 10.5968 18.1137 10.5968 18.4286C10.5968 18.7434 10.3439 19 10.0322 19C9.72064 19 9.46773 18.7434 9.46773 18.4286C9.46773 18.1137 9.72064 17.8571 10.0322 17.8571ZM10.3275 16.7446C10.3168 16.7428 10.3049 16.7428 10.2942 16.7411C9.76128 16.1983 9.46773 15.4794 9.46773 14.7143C9.46773 13.9657 9.75225 13.2646 10.2626 12.7263C11.2804 12.768 12.2277 13.0817 13.0383 13.6006C12.4382 13.7926 11.8872 14.1268 11.4294 14.5903C10.8418 15.1846 10.4652 15.9326 10.3275 16.7446ZM9.0641 17.0257C9.05451 17.0326 9.0466 17.0411 9.03757 17.048C8.28225 17.0451 7.57265 16.7468 7.03806 16.2063C6.51588 15.6777 6.22741 14.9788 6.21161 14.2343C6.92572 13.5674 7.80693 13.084 8.78636 12.8594C8.49507 13.4251 8.3387 14.0571 8.3387 14.7143C8.3387 15.5543 8.59443 16.3537 9.0641 17.0257ZM6.23983 17.0143C6.82693 17.6086 7.56644 17.9903 8.36862 18.1297C8.36693 18.1406 8.36693 18.1526 8.36523 18.164C7.82894 18.7023 7.11878 19 6.3629 19C5.62394 19 4.93072 18.712 4.39894 18.1954C4.44015 17.1651 4.75007 16.2063 5.26265 15.3863C5.45177 15.9937 5.78201 16.5508 6.23983 17.0143ZM9.73701 20.1126C9.74773 20.1143 9.75959 20.1143 9.77031 20.116C10.3032 20.6588 10.5968 21.3777 10.5968 22.1428C10.5968 22.8914 10.3122 23.5926 9.80193 24.1308C8.7841 24.0891 7.83685 23.7754 7.0262 23.2566C7.62628 23.0646 8.17725 22.7303 8.63507 22.2668C9.22273 21.6726 9.59927 20.9246 9.73701 20.1126ZM11.0004 19.8314C11.01 19.8246 11.0179 19.816 11.0269 19.8091C11.7822 19.812 12.4918 20.1103 13.0264 20.6508C13.5486 21.1794 13.8371 21.8783 13.8529 22.6228C13.1388 23.2897 12.2576 23.7731 11.2781 23.9977C11.5694 23.432 11.7258 22.8 11.7258 22.1428C11.7258 21.3028 11.4701 20.5034 11.0004 19.8314ZM13.8247 19.8428C13.2376 19.2486 12.4981 18.8668 11.6959 18.7274C11.6976 18.7166 11.6976 18.7046 11.6993 18.6931C12.2356 18.1548 12.9457 17.8571 13.7016 17.8571C14.4406 17.8571 15.1338 18.1451 15.6656 18.6617C15.6243 19.692 15.3144 20.6508 14.8018 21.4708C14.6127 20.8634 14.2825 20.3063 13.8247 19.8428ZM13.7016 16.7143C12.8718 16.7143 12.0826 16.9737 11.4181 17.4486C11.4114 17.4388 11.4029 17.4308 11.3961 17.4217C11.3989 16.6571 11.6931 15.9394 12.2277 15.3983C12.7498 14.8697 13.4402 14.5777 14.1764 14.5617C14.8352 15.2846 15.3127 16.1766 15.5346 17.168C14.9752 16.8726 14.3502 16.7143 13.7016 16.7143ZM4.52991 19.6891C5.08935 19.9846 5.71427 20.1428 6.3629 20.1428C7.19273 20.1428 7.98193 19.8834 8.64636 19.4086C8.65314 19.4183 8.6616 19.4263 8.66838 19.4354C8.66556 20.2 8.37144 20.9177 7.83685 21.4588C7.31467 21.9874 6.62427 22.2794 5.88814 22.2954C5.22935 21.5731 4.75177 20.6811 4.52991 19.6891Z" fill="white"/>
<path d="M26.9678 11.5714C23.2324 11.5714 20.1936 14.6474 20.1936 18.4286C20.1936 22.2097 23.2324 25.2857 26.9678 25.2857C30.7032 25.2857 33.742 22.2097 33.742 18.4286C33.742 14.6474 30.7032 11.5714 26.9678 11.5714ZM26.9678 17.8571C27.2794 17.8571 27.5323 18.1137 27.5323 18.4286C27.5323 18.7434 27.2794 19 26.9678 19C26.6562 19 26.4033 18.7434 26.4033 18.4286C26.4033 18.1137 26.6562 17.8571 26.9678 17.8571ZM27.263 16.7446C27.2523 16.7428 27.2405 16.7428 27.2297 16.7411C26.6968 16.1983 26.4033 15.4794 26.4033 14.7143C26.4033 13.9657 26.6878 13.2646 27.1981 12.7263C28.2159 12.768 29.1632 13.0817 29.9738 13.6006C29.3738 13.7926 28.8228 14.1268 28.365 14.5903C27.7773 15.1846 27.4008 15.9326 27.263 16.7446V16.7446ZM25.9997 17.0257C25.9901 17.0326 25.9822 17.0411 25.9731 17.048C25.2178 17.0451 24.5082 16.7468 23.9736 16.2063C23.4514 15.6777 23.163 14.9788 23.1472 14.2343C23.8613 13.5674 24.7425 13.084 25.7219 12.8594C25.4306 13.4251 25.2742 14.0571 25.2742 14.7143C25.2742 15.5543 25.53 16.3537 25.9997 17.0257ZM23.1754 17.0143C23.7625 17.6086 24.502 17.9903 25.3042 18.1297C25.3025 18.1406 25.3025 18.1526 25.3008 18.164C24.7645 18.7023 24.0543 19 23.2984 19C22.5595 19 21.8663 18.712 21.3345 18.1954C21.3757 17.1651 21.6856 16.2063 22.1982 15.3863C22.3873 15.9937 22.7176 16.5508 23.1754 17.0143V17.0143ZM26.6726 20.1126C26.6833 20.1143 26.6951 20.1143 26.7059 20.116C27.2388 20.6588 27.5323 21.3777 27.5323 22.1428C27.5323 22.8914 27.2478 23.5926 26.7375 24.1308C25.7197 24.0891 24.7724 23.7754 23.9617 23.2566C24.5618 23.0646 25.1128 22.7303 25.5706 22.2668C26.1583 21.6726 26.5348 20.9246 26.6726 20.1126V20.1126ZM27.9359 19.8314C27.9455 19.8246 27.9534 19.816 27.9625 19.8091C28.7178 19.812 29.4274 20.1103 29.962 20.6508C30.4842 21.1794 30.7726 21.8783 30.7884 22.6228C30.0743 23.2897 29.1931 23.7731 28.2137 23.9977C28.505 23.432 28.6613 22.8 28.6613 22.1428C28.6613 21.3028 28.4056 20.5034 27.9359 19.8314V19.8314ZM30.7602 19.8428C30.1731 19.2486 29.4336 18.8668 28.6314 18.7274C28.6331 18.7166 28.6331 18.7046 28.6348 18.6931C29.1711 18.1548 29.8813 17.8571 30.6372 17.8571C31.3761 17.8571 32.0693 18.1451 32.6011 18.6617C32.5599 19.692 32.25 20.6508 31.7374 21.4708C31.5483 20.8634 31.218 20.3063 30.7602 19.8428V19.8428ZM30.6372 16.7143C29.8073 16.7143 29.0181 16.9737 28.3537 17.4486C28.3469 17.4388 28.3384 17.4308 28.3317 17.4217C28.3345 16.6571 28.6286 15.9394 29.1632 15.3983C29.6854 14.8697 30.3758 14.5777 31.1119 14.5617C31.7707 15.2846 32.2483 16.1766 32.4701 17.168C31.9107 16.8726 31.2858 16.7143 30.6372 16.7143V16.7143ZM21.4655 19.6891C22.0249 19.9846 22.6498 20.1428 23.2984 20.1428C24.1283 20.1428 24.9175 19.8834 25.5819 19.4086C25.5887 19.4183 25.5972 19.4263 25.6039 19.4354C25.6011 20.2 25.307 20.9177 24.7724 21.4588C24.2502 21.9874 23.5598 22.2794 22.8237 22.2954C22.1649 21.5731 21.6873 20.6811 21.4655 19.6891V19.6891Z" fill="white"/>
<path d="M3.25806 11.5714H4.38709V12.7143H3.25806V11.5714Z" fill="white"/>
<path d="M3.25806 24.1429H4.38709V25.2857H3.25806V24.1429Z" fill="white"/>
<path d="M32.6128 11.5714H33.7418V12.7143H32.6128V11.5714Z" fill="white"/>
<path d="M32.6128 24.1429H33.7418V25.2857H32.6128V24.1429Z" fill="white"/>
</svg>
