<svg width="37" height="37" viewBox="0 0 37 37" fill="none" xmlns="http://www.w3.org/2000/svg">
<path d="M5 1V35H30.3564V1H5ZM28.3642 33.0078H6.99219V2.99219H28.3642V33.0078Z" fill="white"/>
<path d="M21.6626 4.98438H8.98438V10.9609H21.6626V4.98438ZM19.6704 8.96875H10.9766V6.97656H19.6704V8.96875Z" fill="white"/>
<path d="M17.6782 31.0157C22.472 31.0157 26.3721 27.1156 26.3721 22.3218C26.3721 17.528 22.472 13.628 17.6782 13.628C12.8844 13.628 8.98438 17.528 8.98438 22.3218C8.98438 27.1156 12.8844 31.0157 17.6782 31.0157V31.0157ZM17.6782 15.6202C21.3735 15.6202 24.3799 18.6265 24.3799 22.3218C24.3799 26.0171 21.3735 29.0235 17.6782 29.0235C13.9829 29.0235 10.9766 26.0171 10.9766 22.3218C10.9766 18.6265 13.9829 15.6202 17.6782 15.6202V15.6202Z" fill="white"/>
<path d="M16.6821 21.3256H18.6743V23.3178H16.6821V21.3256Z" fill="white"/>
</svg>
