<svg width="37" height="37" viewBox="0 0 37 37" fill="none" xmlns="http://www.w3.org/2000/svg">
<path d="M4.96655 16.7333H15.1665C15.4793 16.7333 15.7332 16.4795 15.7332 16.1667C15.7332 15.8539 15.4793 15.6 15.1665 15.6H4.96655C4.65377 15.6 4.3999 15.8539 4.3999 16.1667C4.3999 16.4795 4.65377 16.7333 4.96655 16.7333Z" fill="white"/>
<path d="M31.0502 6.53338C31.363 6.53338 31.6169 6.2795 31.6169 5.96673C31.6169 5.65396 31.363 5.40009 31.0502 5.40009H31.044C30.7317 5.40009 30.4807 5.65396 30.4807 5.96673C30.4807 6.2795 30.7374 6.53338 31.0502 6.53338Z" fill="white"/>
<path d="M5.55021 5.96667C5.55021 5.6539 5.29693 5.40002 4.98356 5.40002H4.97792C4.66514 5.40002 4.41406 5.6539 4.41406 5.96667C4.41406 6.27944 4.67019 6.53331 4.98356 6.53331C5.29693 6.53331 5.55021 6.27951 5.55021 5.96667Z" fill="white"/>
<path d="M14.6 13.3333C15.225 13.3333 15.7333 12.8251 15.7333 12.2V9.93334C15.7333 9.30833 15.225 8.79999 14.6 8.79999H12.3333C11.7083 8.79999 11.2 9.30826 11.2 9.93334V12.2C11.2 12.825 11.7082 13.3333 12.3333 13.3333H14.6ZM12.3333 9.93334H14.6L14.6005 12.2H12.3333V9.93334Z" fill="white"/>
<path d="M32.1666 2H3.83336C2.377 2 1 3.377 1 4.83336V30.9C1 31.2128 1.25387 31.4666 1.56664 31.4666C1.87942 31.4666 2.13329 31.2128 2.13329 30.9V4.83336C2.13329 4.00713 3.00706 3.13336 3.83329 3.13336H32.1666C32.9929 3.13336 33.8666 4.00713 33.8666 4.83336V33.1667C33.8666 33.9929 32.9929 34.8667 32.1666 34.8667H3.83336C3.00713 34.8667 2.13336 33.9929 2.13336 33.1667C2.13336 32.8539 1.87948 32.6001 1.56671 32.6001C1.25394 32.6001 1 32.8539 1 33.1666C1 34.623 2.377 36 3.83336 36H32.1667C33.623 36 35 34.623 35 33.1666V4.83336C35 3.377 33.623 2 32.1666 2Z" fill="white"/>
<path d="M4.3999 12.2C4.3999 12.825 4.90818 13.3333 5.53326 13.3333H7.7999C8.42492 13.3333 8.93326 12.8251 8.93326 12.2V9.93334C8.93326 9.30833 8.42498 8.79999 7.7999 8.79999H5.53326C4.90824 8.79999 4.3999 9.30826 4.3999 9.93334V12.2ZM5.53326 9.93334H7.7999L7.8005 12.2H5.53326V9.93334Z" fill="white"/>
<path d="M8.36668 22.4C8.67946 22.4 8.93333 22.1461 8.93333 21.8333C8.93333 21.5206 8.67946 21.2667 8.36668 21.2667H7.80004V19.5667C7.80004 19.2539 7.54617 19.0001 7.23339 19.0001C6.92062 19.0001 6.66675 19.2539 6.66675 19.5667V29.7667C6.66675 30.0795 6.92062 30.3333 7.23339 30.3333C7.54617 30.3333 7.80004 30.0795 7.80004 29.7667V29.2H8.36668C8.67946 29.2 8.93333 28.9461 8.93333 28.6333C8.93333 28.3206 8.67946 28.0667 8.36668 28.0667H7.80004V26.9334H8.36668C8.67946 26.9334 8.93333 26.6795 8.93333 26.3667C8.93333 26.0539 8.67946 25.8001 8.36668 25.8001H7.80004V24.6667H8.36668C8.67946 24.6667 8.93333 24.4128 8.93333 24.1001C8.93333 23.7873 8.67946 23.5334 8.36668 23.5334H7.80004V22.4H8.36668Z" fill="white"/>
<path d="M31.0502 32.6C31.363 32.6 31.6169 32.3461 31.6169 32.0334C31.6169 31.7206 31.363 31.4667 31.0502 31.4667H31.044C30.7317 31.4667 30.4807 31.7206 30.4807 32.0334C30.4807 32.3461 30.7374 32.6 31.0502 32.6Z" fill="white"/>
<path d="M20.8333 7.66663C20.5199 7.66663 20.2666 7.9205 20.2666 8.23327V8.79992C19.6416 8.79992 19.1333 9.30819 19.1333 9.93327V10.5H18.5666C18.2539 10.5 18 10.7539 18 11.0666C18 11.3794 18.2539 11.6333 18.5666 11.6333H19.1333V12.1999C19.1333 12.8249 19.6416 13.3333 20.2666 13.3333V13.8999C20.2666 14.2127 20.5199 14.4666 20.8333 14.4666C21.1467 14.4666 21.3999 14.2127 21.3999 13.8999V13.3333H22.5333V13.8999C22.5333 14.2127 22.7866 14.4666 23.0999 14.4666C23.4133 14.4666 23.6666 14.2127 23.6666 13.8999V13.3333H24.7999V13.8999C24.7999 14.2127 25.0532 14.4666 25.3666 14.4666C25.6799 14.4666 25.9332 14.2127 25.9332 13.8999V13.3333H27.0666V13.8999C27.0666 14.2127 27.3199 14.4666 27.6332 14.4666C27.9466 14.4666 28.1999 14.2127 28.1999 13.8999V13.3333C28.8249 13.3333 29.3332 12.825 29.3332 12.1999V11.6333H29.8999C30.2132 11.6333 30.4665 11.3794 30.4665 11.0666C30.4665 10.7539 30.2133 10.5 29.8999 10.5H29.3333V9.93334C29.3333 9.30832 28.825 8.79998 28.1999 8.79998V8.23334C28.1999 7.92056 27.9467 7.66669 27.6333 7.66669C27.3199 7.66669 27.0666 7.92056 27.0666 8.23334V8.79998H25.9333V8.23334C25.9333 7.92056 25.68 7.66669 25.3666 7.66669C25.0533 7.66669 24.8 7.92056 24.8 8.23334V8.79998H23.6666V8.23334C23.6666 7.92056 23.4134 7.66669 23.1 7.66669C22.7866 7.66669 22.5334 7.92056 22.5334 8.23334V8.79998H21.3999V8.23334C21.3999 7.9205 21.1467 7.66663 20.8333 7.66663ZM28.1999 9.93334V11.0656V11.0667V11.0678L28.2005 12.2001H20.2666V9.9334H28.1999V9.93334Z" fill="white"/>
<path d="M4.97792 31.4666C4.66514 31.4666 4.41406 31.7205 4.41406 32.0333C4.41406 32.346 4.67019 32.5999 4.98356 32.5999C5.29693 32.5999 5.55021 32.346 5.55021 32.0333C5.55021 31.7205 5.29693 31.4666 4.98356 31.4666H4.97792Z" fill="white"/>
<path d="M17.269 25.209C17.5076 25.2826 17.766 25.1886 17.9048 24.9812C17.9144 24.9665 18.8925 23.5333 20.8333 23.5333C21.9955 23.5333 22.6007 24.0541 22.8931 24.4406C22.2749 24.856 21.4 25.7501 21.4 27.5C21.4 28.6265 21.7677 29.5049 22.1848 30.1378C20.3743 29.65 18.8897 28.2848 18.2822 26.4403C18.1847 26.1428 17.8635 25.9813 17.5671 26.0794C17.2696 26.1768 17.1081 26.4976 17.2061 26.7945C18.1264 29.5893 20.7228 31.4666 23.6667 31.4666C23.9161 31.4666 24.1365 31.3029 24.209 31.0643C24.2815 30.8251 24.1886 30.5673 23.9812 30.4285C23.9665 30.4189 22.5333 29.4408 22.5333 27.5C22.5333 26.3377 23.0541 25.732 23.4406 25.4407C23.8554 26.0584 24.7501 26.9333 26.5 26.9333C27.6265 26.9333 28.5049 26.5656 29.1378 26.1485C28.6505 27.959 27.2854 29.4431 25.4403 30.0506C25.1428 30.1481 24.9813 30.4688 25.0788 30.7657C25.1576 31.0043 25.3792 31.1556 25.6172 31.1556C25.6762 31.1556 25.7357 31.1465 25.7946 31.1267C28.5888 30.207 30.4667 27.6111 30.4667 24.6667C30.4667 24.4173 30.3035 24.1963 30.0644 24.1244C29.8258 24.0513 29.5668 24.1448 29.4286 24.3522C29.4189 24.3669 28.4409 25.8001 26.5001 25.8001C25.3378 25.8001 24.7327 25.2793 24.4402 24.8928C25.0584 24.478 25.9333 23.5832 25.9333 21.8334C25.9333 20.7069 25.5656 19.8285 25.1485 19.1956C26.959 19.6834 28.4436 21.0485 29.0506 22.8931C29.1481 23.1905 29.4694 23.3521 29.7663 23.254C30.0632 23.1566 30.2248 22.8364 30.1273 22.5389C29.207 19.7447 26.6106 17.8668 23.6667 17.8668C23.4173 17.8668 23.1969 18.0305 23.1244 18.2691C23.0519 18.5082 23.1448 18.7661 23.3522 18.9049C23.3669 18.9145 24.8001 19.8926 24.8001 21.8334C24.8001 22.9956 24.2793 23.6014 23.8928 23.8927C23.478 23.275 22.5832 22.4 20.8334 22.4C19.7069 22.4 18.8285 22.7678 18.1956 23.1849C18.6829 21.3744 20.0486 19.8903 21.8931 19.2829C22.1906 19.1849 22.3527 18.8646 22.2546 18.5671C22.1566 18.2702 21.8347 18.1081 21.5388 18.2062C18.7441 19.1264 16.8667 21.7223 16.8667 24.6668C16.8666 24.916 17.0304 25.137 17.269 25.209Z" fill="white"/>
<path d="M10.0667 19.5666V29.7666C10.0667 30.0794 10.3205 30.3333 10.6333 30.3333C10.9461 30.3333 11.1999 30.0794 11.1999 29.7666V19.5666C11.1999 19.2539 10.9461 19 10.6333 19C10.3205 19 10.0667 19.2539 10.0667 19.5666Z" fill="white"/>
<path d="M12.3335 19.5666V29.7666C12.3335 30.0794 12.5874 30.3333 12.9001 30.3333C13.2129 30.3333 13.4668 30.0794 13.4668 29.7666V19.5666C13.4668 19.2539 13.2129 19 12.9001 19C12.5874 19 12.3335 19.2539 12.3335 19.5666Z" fill="white"/>
</svg>
