<svg width="37" height="37" viewBox="0 0 37 37" fill="none" xmlns="http://www.w3.org/2000/svg">
<path d="M29.2142 30.409H8.74735C8.10871 30.409 7.59106 29.8914 7.59106 29.2527V8.78593C7.59106 8.14728 8.10871 7.62964 8.74735 7.62964H29.2141C29.8528 7.62964 30.3704 8.14728 30.3704 8.78593V29.2527C30.3705 29.8914 29.8528 30.409 29.2142 30.409ZM28.0578 9.94222H9.90371V28.0963H28.0579V9.94222H28.0578Z" fill="white"/>
<path d="M16.803 37C16.1644 37 15.6467 36.4824 15.6467 35.8437V32.182C15.6467 31.5434 16.1644 31.0258 16.803 31.0258C17.4417 31.0258 17.9593 31.5434 17.9593 32.182V35.8437C17.9593 36.4824 17.4417 37 16.803 37Z" fill="white"/>
<path d="M21.1971 37C20.5584 37 20.0408 36.4824 20.0408 35.8437V32.182C20.0408 31.5434 20.5584 31.0258 21.1971 31.0258C21.8361 31.0258 22.3533 31.5434 22.3533 32.182V35.8437C22.3534 36.4824 21.8358 37 21.1971 37Z" fill="white"/>
<path d="M12.409 37C11.7703 37 11.2527 36.4824 11.2527 35.8437V32.182C11.2527 31.5434 11.7703 31.0258 12.409 31.0258C13.0476 31.0258 13.5653 31.5434 13.5653 32.182V35.8437C13.5653 36.4824 13.0477 37 12.409 37Z" fill="white"/>
<path d="M25.5911 37C24.9525 37 24.4348 36.4824 24.4348 35.8437V32.182C24.4348 31.5434 24.9525 31.0258 25.5911 31.0258C26.2298 31.0258 26.7474 31.5434 26.7474 32.182V35.8437C26.7474 36.4824 26.2298 37 25.5911 37Z" fill="white"/>
<path d="M16.803 6.97424C16.1644 6.97424 15.6467 6.4566 15.6467 5.81796V2.15629C15.6467 1.51764 16.1644 1 16.803 1C17.4417 1 17.9593 1.51729 17.9593 2.15629V5.81796C17.9593 6.4566 17.4417 6.97424 16.803 6.97424Z" fill="white"/>
<path d="M21.1971 6.97424C20.5584 6.97424 20.0408 6.4566 20.0408 5.81796V2.15629C20.0408 1.51764 20.5584 1 21.1971 1C21.8361 1 22.3533 1.51729 22.3533 2.15629V5.81796C22.3534 6.4566 21.8358 6.97424 21.1971 6.97424Z" fill="white"/>
<path d="M12.409 6.97424C11.7703 6.97424 11.2527 6.4566 11.2527 5.81796V2.15629C11.2527 1.51764 11.7703 1 12.409 1C13.0476 1 13.5653 1.51729 13.5653 2.15629V5.81796C13.5653 6.4566 13.0477 6.97424 12.409 6.97424Z" fill="white"/>
<path d="M25.5911 6.97424C24.9525 6.97424 24.4348 6.4566 24.4348 5.81796V2.15629C24.4348 1.51764 24.9525 1 25.5911 1C26.2298 1 26.7474 1.51729 26.7474 2.15629V5.81796C26.7474 6.4566 26.2298 6.97424 25.5911 6.97424Z" fill="white"/>
<path d="M35.8438 22.3534H32.1822C31.5435 22.3534 31.0259 21.8358 31.0259 21.1971C31.0259 20.5585 31.5435 20.0408 32.1822 20.0408H35.8438C36.4829 20.0408 37.0001 20.5585 37.0001 21.1971C37.0001 21.8358 36.4825 22.3534 35.8438 22.3534Z" fill="white"/>
<path d="M35.8438 17.9593H32.1822C31.5435 17.9593 31.0259 17.4416 31.0259 16.803C31.0259 16.1644 31.5435 15.6467 32.1822 15.6467H35.8438C36.4829 15.6467 37.0001 16.1644 37.0001 16.803C37.0001 17.4416 36.4825 17.9593 35.8438 17.9593Z" fill="white"/>
<path d="M35.8438 26.7473H32.1822C31.5435 26.7473 31.0259 26.2297 31.0259 25.591C31.0259 24.9524 31.5435 24.4347 32.1822 24.4347H35.8438C36.4829 24.4347 37.0001 24.9524 37.0001 25.591C37.0001 26.2297 36.4825 26.7473 35.8438 26.7473Z" fill="white"/>
<path d="M35.8438 13.5653H32.1822C31.5435 13.5653 31.0259 13.0477 31.0259 12.409C31.0259 11.7704 31.5435 11.2527 32.1822 11.2527H35.8438C36.4829 11.2527 37.0001 11.7704 37.0001 12.409C37.0001 13.0477 36.4825 13.5653 35.8438 13.5653Z" fill="white"/>
<path d="M5.81795 22.3534H2.15629C1.51764 22.3534 1 21.8358 1 21.197C1 20.5584 1.51764 20.0407 2.15629 20.0407H5.81795C6.4566 20.0407 6.97424 20.5584 6.97424 21.197C6.97431 21.8358 6.45667 22.3534 5.81795 22.3534Z" fill="white"/>
<path d="M5.81795 17.9593H2.15629C1.51764 17.9593 1 17.4416 1 16.803C1 16.1644 1.51764 15.6467 2.15629 15.6467H5.81795C6.4566 15.6467 6.97424 16.1644 6.97424 16.803C6.97431 17.4416 6.45667 17.9593 5.81795 17.9593Z" fill="white"/>
<path d="M5.81795 26.7473H2.15629C1.51764 26.7473 1 26.2297 1 25.591C1 24.9524 1.51764 24.4347 2.15629 24.4347H5.81795C6.4566 24.4347 6.97424 24.9524 6.97424 25.591C6.97424 26.2297 6.45667 26.7473 5.81795 26.7473Z" fill="white"/>
<path d="M5.81795 13.5653H2.15629C1.51764 13.5653 1 13.0477 1 12.4089C1 11.7702 1.51764 11.2527 2.15629 11.2527H5.81795C6.4566 11.2527 6.97424 11.7703 6.97424 12.4089C6.97431 13.0477 6.45667 13.5653 5.81795 13.5653Z" fill="white"/>
<path d="M22.6617 23.8179H15.3384C14.6998 23.8179 14.1821 23.3003 14.1821 22.6616V15.3383C14.1821 14.6997 14.6998 14.182 15.3384 14.182H22.6617C23.3004 14.182 23.818 14.6997 23.818 15.3383V22.6616C23.818 23.3003 23.3004 23.8179 22.6617 23.8179ZM21.5055 16.4946H16.4948V21.5053H21.5055V16.4946Z" fill="white"/>
</svg>
