<svg width="37" height="37" viewBox="0 0 37 37" fill="none" xmlns="http://www.w3.org/2000/svg">
<path d="M35.4333 15.5667C35.7463 15.5667 36 15.313 36 15V12.7334C36 12.4204 35.7463 12.1667 35.4333 12.1667H2.56667C2.25372 12.1667 2 12.4204 2 12.7334V15C2 15.313 2.25372 15.5667 2.56667 15.5667C2.87961 15.5667 3.13333 15.8204 3.13333 16.1334C3.13333 16.4463 2.87961 16.7 2.56667 16.7C2.25372 16.7 2 16.9537 2 17.2667V24.0667C2 24.3796 2.25372 24.6334 2.56667 24.6334H3.13333V25.7667C3.13333 26.0796 3.38706 26.3334 3.7 26.3334H13.9C14.2129 26.3334 14.4667 26.0796 14.4667 25.7667V24.6334H15.6V25.7667C15.6 26.0796 15.8537 26.3334 16.1667 26.3334H34.3C34.6129 26.3334 34.8667 26.0796 34.8667 25.7667V24.6334H35.4333C35.7463 24.6334 36 24.3796 36 24.0667V17.2667C36 16.9537 35.7463 16.7 35.4333 16.7C35.1204 16.7 34.8667 16.4463 34.8667 16.1334C34.8667 15.8204 35.1204 15.5667 35.4333 15.5667ZM13.3333 25.2H4.26667V24.6334H13.3333V25.2ZM33.7333 25.2H16.7333V24.6334H33.7333V25.2ZM34.8667 14.5303C33.9813 14.8427 33.5169 15.8138 33.8293 16.6991C34.0004 17.184 34.3818 17.5653 34.8667 17.7365V23.5H3.13333V17.7365C3.1526 17.7297 3.1696 17.7195 3.19 17.7121C3.22173 17.6996 3.25177 17.6855 3.28237 17.6707C3.34512 17.6414 3.40604 17.6082 3.46483 17.5716C3.4926 17.5546 3.5215 17.5376 3.547 17.5189C3.61394 17.4713 3.67733 17.419 3.73683 17.3625C3.7493 17.3506 3.76347 17.3404 3.77537 17.3285C3.84457 17.2584 3.90768 17.1825 3.96407 17.1018C3.97937 17.0791 3.9924 17.0542 4.00713 17.031C4.04602 16.9693 4.0808 16.9051 4.1114 16.8389C4.12557 16.8077 4.13803 16.7765 4.1505 16.7442C4.17621 16.6777 4.19746 16.6096 4.21397 16.5402C4.2219 16.5091 4.23097 16.479 4.23663 16.4473C4.27878 16.2417 4.27878 16.0296 4.23663 15.824C4.23097 15.7922 4.2219 15.7622 4.21397 15.731C4.19746 15.6617 4.17621 15.5935 4.1505 15.527C4.13803 15.4947 4.12557 15.463 4.1114 15.4318C4.08066 15.3659 4.04588 15.3019 4.00713 15.2403C3.9924 15.2171 3.97937 15.1921 3.96407 15.1695C3.90768 15.0887 3.84457 15.0128 3.77537 14.9428C3.76347 14.9309 3.7493 14.9207 3.73683 14.9088C3.67733 14.8522 3.61394 14.7999 3.547 14.7524C3.52037 14.7331 3.49033 14.7167 3.46483 14.6997C3.40604 14.663 3.34512 14.6298 3.28237 14.6005C3.25177 14.5864 3.22173 14.5716 3.19 14.5592C3.1713 14.5518 3.1543 14.5416 3.13333 14.5348V13.3H34.8667V14.5303Z" fill="white"/>
<path d="M20.7001 14.4333H17.3001C16.9871 14.4333 16.7334 14.6871 16.7334 15V20.6667C16.7334 20.9796 16.9871 21.2334 17.3001 21.2334H20.7001C21.013 21.2334 21.2667 20.9796 21.2667 20.6667V15C21.2667 14.6871 21.013 14.4333 20.7001 14.4333ZM20.1334 20.1H17.8667V15.5667H20.1334V20.1Z" fill="white"/>
<path d="M26.3666 14.4333H22.9666C22.6536 14.4333 22.3999 14.6871 22.3999 15V20.6667C22.3999 20.9796 22.6536 21.2334 22.9666 21.2334H26.3666C26.6795 21.2334 26.9332 20.9796 26.9332 20.6667V15C26.9332 14.6871 26.6795 14.4333 26.3666 14.4333ZM25.7999 20.1H23.5332V15.5667H25.7999V20.1Z" fill="white"/>
<path d="M9.36657 14.4333H5.96657C5.65363 14.4333 5.3999 14.6871 5.3999 15V20.6667C5.3999 20.9796 5.65363 21.2334 5.96657 21.2334H9.36657C9.67951 21.2334 9.93324 20.9796 9.93324 20.6667V15C9.93324 14.6871 9.67951 14.4333 9.36657 14.4333ZM8.7999 20.1H6.53324V15.5667H8.7999V20.1Z" fill="white"/>
<path d="M15.0333 14.4333H11.6333C11.3204 14.4333 11.0667 14.6871 11.0667 15V20.6667C11.0667 20.9796 11.3204 21.2334 11.6333 21.2334H15.0333C15.3463 21.2334 15.6 20.9796 15.6 20.6667V15C15.6 14.6871 15.3463 14.4333 15.0333 14.4333ZM14.4666 20.1H12.2V15.5667H14.4666V20.1Z" fill="white"/>
<path d="M32.0333 14.4333H28.6333C28.3204 14.4333 28.0667 14.6871 28.0667 15V20.6667C28.0667 20.9796 28.3204 21.2334 28.6333 21.2334H32.0333C32.3463 21.2334 32.6 20.9796 32.6 20.6667V15C32.6 14.6871 32.3463 14.4333 32.0333 14.4333ZM31.4667 20.1H29.2V15.5667H31.4667V20.1Z" fill="white"/>
</svg>
