<svg width="88" height="103" viewBox="0 0 88 103" fill="none" xmlns="http://www.w3.org/2000/svg">
<path d="M44.158 7.98706L6.98096 45.1641V57.7111L35.055 85.7851L44.155 94.8851L81.3319 57.7081V45.1611L44.158 7.98706Z" stroke="#D8012B"/>
<path d="M44.155 1L1 44.1551V58.72L33.588 91.308L44.154 101.874L87.309 58.7191V44.154L44.155 1Z" stroke="#4F000F"/>
<path opacity="0.26" d="M44.158 13.1479L11.397 45.909V56.966L36.136 81.705L44.158 89.726L76.919 56.965V45.908L44.158 13.1479Z" fill="#F60030" stroke="#4F000F"/>
<path d="M43.1342 34L35 38.6557V47.8013L43.1342 52.7895L51.1053 47.8013V38.6557L43.1342 34Z" fill="white"/>
<path opacity="0.31" d="M35.0815 49.2106L26.9473 53.8662V63.0119L35.0815 68L43.0525 63.0119V53.8662L35.0815 49.2106Z" fill="white"/>
<path opacity="0.31" d="M52.0815 49.2106L43.9473 53.8662V63.0119L52.0815 68L60.0525 63.0119V53.8662L52.0815 49.2106Z" fill="white"/>
</svg>
