<svg width="88" height="103" viewBox="0 0 88 103" fill="none" xmlns="http://www.w3.org/2000/svg">
<path d="M43.6848 7.98706L6.50781 45.1641V57.7111L34.5818 85.7851L43.6818 94.8851L80.8588 57.7081V45.1611L43.6848 7.98706Z" stroke="#D8012B"/>
<path d="M43.6819 1L0.526855 44.1551V58.72L33.1149 91.308L43.6808 101.874L86.8358 58.7191V44.154L43.6819 1Z" stroke="#4F000F"/>
<path opacity="0.26" d="M43.6848 13.1479L10.9238 45.909V56.966L35.6628 81.705L43.6848 89.726L76.4458 56.965V45.908L43.6848 13.1479Z" fill="#F60030" stroke="#4F000F"/>
<path d="M30.6338 38.553V45.8049L34.9068 50.337H42.2858V43.474L37.3648 38.553H30.6338Z" fill="white"/>
<path opacity="0.31" d="M44.4141 52.333V59.585L48.6871 64.1171H56.0661V57.254L51.1451 52.333H44.4141Z" fill="white"/>
<path d="M56.1338 38.618H48.8818L44.3498 42.891V50.273H51.2128L56.1338 45.352V38.618Z" fill="white"/>
<path opacity="0.31" d="M42.354 52.397H35.102L30.57 56.67V64.052H37.433L42.354 59.131V52.397Z" fill="white"/>
</svg>
