<svg width="575" height="380" viewBox="0 0 575 380" fill="none" xmlns="http://www.w3.org/2000/svg">
<path d="M2 263.533C73.4487 263.533 63.835 150.016 135.284 150.016C206.732 150.016 213.425 83.2894 284.873 83.2894C356.322 83.2894 382.156 232.568 453.605 232.568C525.053 232.568 501.929 253.321 573.378 253.321" stroke="url(#paint0_linear)" stroke-width="3" stroke-linecap="round"/>
<path d="M11.9253 262.827C85.592 262.827 86.4303 174.833 160.097 174.833C190.592 174.833 218.876 186.571 230.993 175.623C248.146 160.125 246.421 120.328 289.593 120.328C363.259 120.328 339.896 215.209 413.562 215.209C487.229 215.209 499.711 246.985 573.378 246.985" stroke="#FF0000" stroke-width="3" stroke-linecap="round"/>
<g opacity="0.5">
<g clip-path="url(#clip0)">
<path d="M163.945 363.565H134.925C134.02 363.565 133.286 362.831 133.286 361.925V332.905C133.286 332 134.02 331.266 134.925 331.266H163.945C164.851 331.266 165.585 332 165.585 332.905V361.925C165.585 362.831 164.851 363.565 163.945 363.565ZM162.306 334.545H136.565V360.286H162.306V334.545H162.306Z" fill="white"/>
<path d="M146.348 372.91C145.442 372.91 144.708 372.176 144.708 371.271V366.079C144.708 365.173 145.442 364.439 146.348 364.439C147.253 364.439 147.987 365.173 147.987 366.079V371.271C147.987 372.176 147.253 372.91 146.348 372.91Z" fill="white"/>
<path d="M152.578 372.91C151.672 372.91 150.938 372.176 150.938 371.271V366.079C150.938 365.173 151.672 364.439 152.578 364.439C153.484 364.439 154.218 365.173 154.218 366.079V371.271C154.218 372.176 153.484 372.91 152.578 372.91Z" fill="white"/>
<path d="M140.118 372.91C139.212 372.91 138.478 372.176 138.478 371.271V366.079C138.478 365.173 139.212 364.439 140.118 364.439C141.023 364.439 141.757 365.173 141.757 366.079V371.271C141.757 372.176 141.023 372.91 140.118 372.91Z" fill="white"/>
<path d="M158.808 372.91C157.903 372.91 157.169 372.176 157.169 371.271V366.079C157.169 365.173 157.903 364.439 158.808 364.439C159.714 364.439 160.448 365.173 160.448 366.079V371.271C160.448 372.176 159.714 372.91 158.808 372.91Z" fill="white"/>
<path d="M146.348 330.337C145.442 330.337 144.708 329.603 144.708 328.697V323.505C144.708 322.6 145.442 321.866 146.348 321.866C147.253 321.866 147.987 322.599 147.987 323.505V328.697C147.987 329.603 147.253 330.337 146.348 330.337Z" fill="white"/>
<path d="M152.578 330.337C151.672 330.337 150.938 329.603 150.938 328.697V323.505C150.938 322.6 151.672 321.866 152.578 321.866C153.484 321.866 154.218 322.599 154.218 323.505V328.697C154.218 329.603 153.484 330.337 152.578 330.337Z" fill="white"/>
<path d="M140.118 330.337C139.212 330.337 138.478 329.603 138.478 328.697V323.505C138.478 322.6 139.212 321.866 140.118 321.866C141.023 321.866 141.757 322.599 141.757 323.505V328.697C141.757 329.603 141.023 330.337 140.118 330.337Z" fill="white"/>
<path d="M158.808 330.337C157.903 330.337 157.169 329.603 157.169 328.697V323.505C157.169 322.6 157.903 321.866 158.808 321.866C159.714 321.866 160.448 322.599 160.448 323.505V328.697C160.448 329.603 159.714 330.337 158.808 330.337Z" fill="white"/>
<path d="M173.346 352.143H168.154C167.248 352.143 166.514 351.409 166.514 350.503C166.514 349.598 167.248 348.864 168.154 348.864H173.346C174.252 348.864 174.985 349.598 174.985 350.503C174.985 351.409 174.251 352.143 173.346 352.143Z" fill="white"/>
<path d="M173.346 345.912H168.154C167.248 345.912 166.514 345.178 166.514 344.273C166.514 343.367 167.248 342.633 168.154 342.633H173.346C174.252 342.633 174.985 343.367 174.985 344.273C174.985 345.178 174.251 345.912 173.346 345.912Z" fill="white"/>
<path d="M173.346 358.373H168.154C167.248 358.373 166.514 357.639 166.514 356.733C166.514 355.828 167.248 355.094 168.154 355.094H173.346C174.252 355.094 174.985 355.828 174.985 356.733C174.985 357.639 174.251 358.373 173.346 358.373Z" fill="white"/>
<path d="M173.346 339.682H168.154C167.248 339.682 166.514 338.948 166.514 338.043C166.514 337.137 167.248 336.403 168.154 336.403H173.346C174.252 336.403 174.985 337.137 174.985 338.043C174.985 338.948 174.251 339.682 173.346 339.682Z" fill="white"/>
<path d="M130.772 352.143H125.58C124.674 352.143 123.94 351.409 123.94 350.503C123.94 349.598 124.674 348.864 125.58 348.864H130.772C131.677 348.864 132.411 349.598 132.411 350.503C132.411 351.409 131.678 352.143 130.772 352.143Z" fill="white"/>
<path d="M130.772 345.912H125.58C124.674 345.912 123.94 345.178 123.94 344.273C123.94 343.367 124.674 342.633 125.58 342.633H130.772C131.677 342.633 132.411 343.367 132.411 344.273C132.411 345.178 131.678 345.912 130.772 345.912Z" fill="white"/>
<path d="M130.772 358.373H125.58C124.674 358.373 123.94 357.639 123.94 356.733C123.94 355.828 124.674 355.094 125.58 355.094H130.772C131.677 355.094 132.411 355.828 132.411 356.733C132.411 357.639 131.678 358.373 130.772 358.373Z" fill="white"/>
<path d="M130.772 339.682H125.58C124.674 339.682 123.94 338.948 123.94 338.043C123.94 337.137 124.674 336.403 125.58 336.403H130.772C131.677 336.403 132.411 337.137 132.411 338.043C132.411 338.948 131.678 339.682 130.772 339.682Z" fill="white"/>
<path d="M154.655 354.219H144.271C143.365 354.219 142.631 353.486 142.631 352.58V342.196C142.631 341.291 143.365 340.557 144.271 340.557H154.655C155.56 340.557 156.294 341.291 156.294 342.196V352.58C156.294 353.486 155.56 354.219 154.655 354.219ZM153.015 343.836H145.91V350.94H153.015V343.836Z" fill="white"/>
</g>
<g clip-path="url(#clip1)">
<path d="M410.53 372.91H370.485C369.797 372.91 369.239 372.352 369.239 371.664V331.619C369.239 330.931 369.797 330.373 370.485 330.373H410.53C411.218 330.373 411.776 330.931 411.776 331.619V371.664C411.776 372.352 411.218 372.91 410.53 372.91ZM409.284 332.866H371.731V370.418H409.284V332.866Z" fill="white"/>
<path d="M390.507 369.504C380.635 369.504 372.645 361.515 372.645 351.642C372.645 341.77 380.634 333.779 390.507 333.779C400.379 333.779 408.37 341.768 408.37 351.642C408.37 361.514 400.381 369.504 390.507 369.504ZM390.507 367.012C394.297 367.012 397.77 365.632 400.453 363.35L398.095 360.991C396.022 362.677 393.381 363.689 390.507 363.689C387.634 363.689 384.993 362.677 382.92 360.991L380.562 363.35C383.244 365.632 386.717 367.012 390.507 367.012ZM393.941 356.838C392.956 357.491 391.776 357.873 390.507 357.873C389.239 357.873 388.059 357.491 387.074 356.838L384.693 359.218C386.305 360.458 388.322 361.196 390.507 361.196C392.693 361.196 394.71 360.458 396.321 359.218L393.941 356.838ZM394.246 351.642C394.246 351.065 394.115 350.519 393.881 350.031L392.27 351.642L393.881 353.253C394.115 352.765 394.246 352.218 394.246 351.642ZM390.507 353.404L388.897 355.015C389.385 355.249 389.931 355.38 390.507 355.38C391.084 355.38 391.63 355.249 392.118 355.015L390.507 353.404ZM392.118 348.269C391.63 348.035 391.084 347.903 390.507 347.903C389.931 347.903 389.385 348.035 388.897 348.269L390.507 349.879L392.118 348.269ZM388.745 351.642L387.134 350.031C386.9 350.519 386.769 351.065 386.769 351.642C386.769 352.218 386.9 352.765 387.134 353.253L388.745 351.642ZM385.311 355.075C384.658 354.09 384.276 352.91 384.276 351.642C384.276 350.374 384.658 349.193 385.311 348.208L382.931 345.828C381.691 347.44 380.953 349.456 380.953 351.642C380.953 353.828 381.691 355.844 382.931 357.456L385.311 355.075ZM387.074 346.446C388.059 345.792 389.239 345.411 390.507 345.411C391.776 345.411 392.956 345.792 393.941 346.446L396.321 344.066C394.71 342.826 392.693 342.088 390.507 342.088C388.322 342.088 386.305 342.826 384.694 344.066L387.074 346.446ZM395.703 348.208C396.357 349.193 396.738 350.374 396.738 351.642C396.738 352.91 396.357 354.09 395.703 355.076L398.084 357.456C399.323 355.844 400.062 353.828 400.062 351.642C400.062 349.456 399.323 347.44 398.084 345.828L395.703 348.208ZM375.137 351.642C375.137 355.432 376.517 358.905 378.799 361.587L381.158 359.229C379.472 357.156 378.461 354.515 378.461 351.642C378.461 348.768 379.472 346.127 381.158 344.055L378.799 341.696C376.517 344.379 375.137 347.852 375.137 351.642ZM390.507 336.272C386.717 336.272 383.244 337.651 380.562 339.934L382.92 342.292C384.993 340.607 387.634 339.595 390.507 339.595C393.381 339.595 396.022 340.607 398.095 342.292L400.453 339.934C397.77 337.651 394.297 336.272 390.507 336.272ZM402.215 341.696L399.857 344.054C401.542 346.127 402.554 348.768 402.554 351.642C402.554 354.515 401.542 357.156 399.857 359.229L402.215 361.588C404.498 358.905 405.877 355.432 405.877 351.642C405.877 347.852 404.498 344.379 402.215 341.696Z" fill="white"/>
<path d="M375.054 365.433C375.972 365.433 376.716 366.177 376.716 367.095C376.716 368.012 375.972 368.756 375.054 368.756C374.137 368.756 373.393 368.012 373.393 367.095C373.393 366.177 374.137 365.433 375.054 365.433Z" fill="white"/>
<path d="M405.96 365.433C406.878 365.433 407.622 366.177 407.622 367.095C407.622 368.012 406.878 368.756 405.96 368.756C405.043 368.756 404.299 368.012 404.299 367.095C404.299 366.177 405.043 365.433 405.96 365.433Z" fill="white"/>
<path d="M375.054 334.527C375.972 334.527 376.716 335.271 376.716 336.189C376.716 337.106 375.972 337.85 375.054 337.85C374.137 337.85 373.393 337.106 373.393 336.189C373.393 335.271 374.137 334.527 375.054 334.527Z" fill="white"/>
<path d="M405.96 334.527C406.878 334.527 407.622 335.271 407.622 336.189C407.622 337.106 406.878 337.85 405.96 337.85C405.043 337.85 404.299 337.106 404.299 336.189C404.299 335.271 405.043 334.527 405.96 334.527Z" fill="white"/>
</g>
<path d="M252.793 335.337H246.59V334.451C246.59 332.985 245.397 331.792 243.931 331.792H227.094C225.628 331.792 224.435 332.985 224.435 334.451V337.996H224.023L222.514 335.732C222.349 335.485 222.072 335.337 221.776 335.337H203.166C201.701 335.337 200.508 336.53 200.508 337.996V361.037C200.508 362.502 201.701 363.695 203.166 363.695H209.37V368.126C209.37 368.615 209.766 369.012 210.256 369.012H238.614C239.104 369.012 239.5 368.615 239.5 368.126V363.695H252.793C254.259 363.695 255.452 362.502 255.452 361.037V337.996C255.452 336.53 254.259 335.337 252.793 335.337ZM226.207 334.451C226.207 333.963 226.604 333.565 227.094 333.565H243.931C244.42 333.565 244.817 333.963 244.817 334.451V335.337H234.183C233.887 335.337 233.611 335.485 233.446 335.732L231.937 337.996H226.207V334.451ZM237.728 367.24H211.142V363.695H212.915V365.468H214.687V363.695H216.459V365.468H218.232V363.695H220.004V365.468H221.776V363.695H223.549V365.468H225.321V363.695H227.094V365.468H228.866V363.695H230.638V365.468H232.411V363.695H234.183V365.468H235.956V363.695H237.728V367.24ZM253.679 361.037C253.679 361.525 253.282 361.923 252.793 361.923H203.166C202.677 361.923 202.28 361.525 202.28 361.037V337.996C202.28 337.507 202.677 337.11 203.166 337.11H221.302L222.812 339.374C222.976 339.62 223.253 339.768 223.549 339.768H232.411C232.707 339.768 232.983 339.62 233.148 339.374L234.657 337.11H252.793C253.282 337.11 253.679 337.507 253.679 337.996V361.037Z" fill="white"/>
<path d="M214.687 338.881C208.823 338.881 204.052 343.651 204.052 349.515C204.052 355.379 208.823 360.149 214.687 360.149C220.551 360.149 225.321 355.379 225.321 349.515C225.321 343.651 220.551 338.881 214.687 338.881ZM214.687 348.629C215.176 348.629 215.573 349.027 215.573 349.515C215.573 350.003 215.176 350.401 214.687 350.401C214.197 350.401 213.8 350.003 213.8 349.515C213.8 349.027 214.197 348.629 214.687 348.629ZM215.15 346.903C215.133 346.901 215.115 346.901 215.098 346.898C214.261 346.056 213.8 344.941 213.8 343.755C213.8 342.594 214.247 341.506 215.048 340.672C216.646 340.736 218.133 341.223 219.406 342.027C218.464 342.325 217.599 342.844 216.88 343.562C215.957 344.484 215.366 345.644 215.15 346.903V346.903ZM213.167 347.339C213.152 347.35 213.139 347.363 213.125 347.374C211.939 347.369 210.825 346.907 209.986 346.069C209.166 345.249 208.714 344.165 208.689 343.01C209.81 341.976 211.193 341.226 212.731 340.878C212.273 341.755 212.028 342.736 212.028 343.755C212.028 345.057 212.429 346.297 213.167 347.339ZM208.733 347.322C209.655 348.243 210.816 348.835 212.075 349.051C212.072 349.068 212.072 349.087 212.07 349.105C211.228 349.939 210.113 350.401 208.926 350.401C207.766 350.401 206.678 349.954 205.843 349.153C205.908 347.556 206.394 346.069 207.199 344.797C207.496 345.739 208.014 346.603 208.733 347.322V347.322ZM214.223 352.127C214.24 352.129 214.259 352.129 214.275 352.132C215.112 352.974 215.573 354.089 215.573 355.275C215.573 356.436 215.126 357.523 214.325 358.358C212.727 358.294 211.24 357.807 209.968 357.002C210.91 356.705 211.775 356.186 212.493 355.468C213.416 354.546 214.007 353.386 214.223 352.127V352.127ZM216.206 351.691C216.221 351.68 216.234 351.667 216.248 351.656C217.434 351.66 218.548 352.123 219.387 352.961C220.207 353.781 220.66 354.865 220.684 356.02C219.563 357.054 218.18 357.804 216.642 358.152C217.1 357.274 217.345 356.294 217.345 355.275C217.345 353.972 216.944 352.733 216.206 351.691V351.691ZM220.64 351.708C219.718 350.787 218.557 350.195 217.298 349.978C217.301 349.962 217.301 349.943 217.304 349.925C218.145 349.09 219.26 348.629 220.447 348.629C221.607 348.629 222.695 349.075 223.53 349.877C223.465 351.474 222.979 352.961 222.174 354.233C221.877 353.291 221.359 352.427 220.64 351.708V351.708ZM220.447 346.856C219.144 346.856 217.905 347.259 216.862 347.995C216.852 347.98 216.838 347.968 216.828 347.953C216.832 346.768 217.294 345.655 218.133 344.815C218.953 343.996 220.037 343.543 221.192 343.518C222.226 344.639 222.976 346.022 223.324 347.56C222.446 347.102 221.465 346.856 220.447 346.856V346.856ZM206.049 351.47C206.927 351.928 207.908 352.174 208.926 352.174C210.229 352.174 211.468 351.771 212.511 351.035C212.522 351.05 212.535 351.062 212.546 351.076C212.541 352.262 212.079 353.375 211.24 354.214C210.42 355.034 209.337 355.487 208.181 355.512C207.147 354.392 206.397 353.008 206.049 351.47V351.47Z" fill="white"/>
<path d="M241.273 338.881C235.409 338.881 230.638 343.651 230.638 349.515C230.638 355.379 235.409 360.149 241.273 360.149C247.136 360.149 251.907 355.379 251.907 349.515C251.907 343.651 247.136 338.881 241.273 338.881ZM241.273 348.629C241.762 348.629 242.159 349.027 242.159 349.515C242.159 350.003 241.762 350.401 241.273 350.401C240.783 350.401 240.386 350.003 240.386 349.515C240.386 349.027 240.783 348.629 241.273 348.629ZM241.736 346.903C241.719 346.901 241.701 346.901 241.684 346.898C240.847 346.056 240.386 344.941 240.386 343.755C240.386 342.594 240.833 341.506 241.634 340.672C243.232 340.736 244.719 341.223 245.991 342.027C245.049 342.325 244.185 342.844 243.466 343.562C242.543 344.484 241.952 345.644 241.736 346.903V346.903ZM239.753 347.339C239.738 347.35 239.725 347.363 239.711 347.374C238.525 347.369 237.411 346.907 236.572 346.069C235.752 345.249 235.3 344.165 235.275 343.01C236.396 341.976 237.779 341.226 239.317 340.878C238.859 341.755 238.614 342.736 238.614 343.755C238.614 345.057 239.015 346.297 239.753 347.339ZM235.319 347.322C236.241 348.243 237.402 348.835 238.661 349.051C238.658 349.068 238.658 349.087 238.656 349.105C237.814 349.939 236.699 350.401 235.512 350.401C234.352 350.401 233.264 349.954 232.429 349.153C232.494 347.556 232.98 346.069 233.785 344.797C234.082 345.739 234.6 346.603 235.319 347.322V347.322ZM240.809 352.127C240.826 352.129 240.844 352.129 240.861 352.132C241.698 352.974 242.159 354.089 242.159 355.275C242.159 356.436 241.712 357.523 240.911 358.358C239.313 358.294 237.826 357.807 236.554 357.002C237.496 356.705 238.36 356.186 239.079 355.468C240.002 354.546 240.593 353.386 240.809 352.127V352.127ZM242.792 351.691C242.807 351.68 242.82 351.667 242.834 351.656C244.02 351.66 245.134 352.123 245.973 352.961C246.793 353.781 247.245 354.865 247.27 356.02C246.149 357.054 244.766 357.804 243.228 358.152C243.686 357.274 243.931 356.294 243.931 355.275C243.931 353.972 243.53 352.733 242.792 351.691V351.691ZM247.226 351.708C246.304 350.787 245.143 350.195 243.884 349.978C243.887 349.962 243.887 349.943 243.889 349.925C244.731 349.09 245.846 348.629 247.033 348.629C248.193 348.629 249.281 349.075 250.116 349.877C250.051 351.474 249.565 352.961 248.76 354.233C248.463 353.291 247.945 352.427 247.226 351.708V351.708ZM247.033 346.856C245.73 346.856 244.491 347.259 243.448 347.995C243.437 347.98 243.424 347.968 243.414 347.953C243.418 346.768 243.88 345.655 244.719 344.815C245.539 343.996 246.622 343.543 247.778 343.518C248.812 344.639 249.562 346.022 249.91 347.56C249.032 347.102 248.051 346.856 247.033 346.856V346.856ZM232.635 351.47C233.513 351.928 234.494 352.174 235.512 352.174C236.815 352.174 238.054 351.771 239.097 351.035C239.108 351.05 239.121 351.062 239.131 351.076C239.127 352.262 238.665 353.375 237.826 354.214C237.006 355.034 235.923 355.487 234.767 355.512C233.733 354.392 232.983 353.008 232.635 351.47V351.47Z" fill="white"/>
<path d="M204.052 338.881H205.825V340.653H204.052V338.881Z" fill="white"/>
<path d="M204.052 358.377H205.825V360.149H204.052V358.377Z" fill="white"/>
<path d="M250.134 338.881H251.907V340.653H250.134V338.881Z" fill="white"/>
<path d="M250.134 358.377H251.907V360.149H250.134V358.377Z" fill="white"/>
<g clip-path="url(#clip2)">
<path d="M334.264 345.497C334.786 345.497 335.209 345.074 335.209 344.552V340.771C335.209 340.249 334.786 339.826 334.264 339.826H279.438C278.916 339.826 278.493 340.249 278.493 340.771V344.552C278.493 345.074 278.916 345.497 279.438 345.497C279.96 345.497 280.383 345.921 280.383 346.443C280.383 346.965 279.96 347.388 279.438 347.388C278.916 347.388 278.493 347.811 278.493 348.333V359.677C278.493 360.199 278.916 360.622 279.438 360.622H280.383V362.512C280.383 363.034 280.806 363.458 281.328 363.458H298.343C298.865 363.458 299.289 363.034 299.289 362.512V360.622H301.179V362.512C301.179 363.034 301.602 363.458 302.125 363.458H332.373C332.895 363.458 333.319 363.034 333.319 362.512V360.622H334.264C334.786 360.622 335.209 360.199 335.209 359.677V348.333C335.209 347.811 334.786 347.388 334.264 347.388C333.742 347.388 333.319 346.965 333.319 346.443C333.319 345.921 333.742 345.497 334.264 345.497ZM297.398 361.567H282.274V360.622H297.398V361.567ZM331.428 361.567H303.07V360.622H331.428V361.567ZM333.319 343.769C331.842 344.29 331.067 345.91 331.588 347.386C331.874 348.195 332.51 348.831 333.319 349.117V358.731H280.383V349.117C280.415 349.106 280.444 349.089 280.478 349.076C280.531 349.055 280.581 349.032 280.632 349.007C280.737 348.958 280.838 348.903 280.936 348.842C280.983 348.813 281.031 348.785 281.073 348.754C281.185 348.675 281.291 348.587 281.39 348.493C281.411 348.473 281.434 348.456 281.454 348.436C281.57 348.319 281.675 348.193 281.769 348.058C281.795 348.02 281.816 347.979 281.841 347.94C281.906 347.837 281.964 347.73 282.015 347.62C282.038 347.568 282.059 347.516 282.08 347.462C282.123 347.351 282.158 347.237 282.186 347.121C282.199 347.069 282.214 347.019 282.224 346.966C282.294 346.623 282.294 346.27 282.224 345.927C282.214 345.874 282.199 345.824 282.186 345.772C282.158 345.656 282.123 345.542 282.08 345.431C282.059 345.377 282.038 345.324 282.015 345.272C281.963 345.162 281.905 345.056 281.841 344.953C281.816 344.914 281.795 344.873 281.769 344.835C281.675 344.7 281.57 344.574 281.454 344.457C281.434 344.437 281.411 344.42 281.39 344.4C281.291 344.306 281.185 344.218 281.073 344.139C281.029 344.107 280.979 344.08 280.936 344.051C280.838 343.99 280.737 343.935 280.632 343.886C280.581 343.862 280.531 343.838 280.478 343.817C280.447 343.804 280.418 343.787 280.383 343.776V341.716H333.319V343.769Z" fill="white"/>
<path d="M309.687 343.607H304.015C303.493 343.607 303.07 344.03 303.07 344.552V354.005C303.07 354.527 303.493 354.95 304.015 354.95H309.687C310.209 354.95 310.632 354.527 310.632 354.005V344.552C310.632 344.03 310.209 343.607 309.687 343.607ZM308.741 353.06H304.96V345.497H308.741V353.06Z" fill="white"/>
<path d="M319.139 343.607H313.468C312.946 343.607 312.522 344.03 312.522 344.552V354.005C312.522 354.527 312.946 354.95 313.468 354.95H319.139C319.661 354.95 320.085 354.527 320.085 354.005V344.552C320.085 344.03 319.661 343.607 319.139 343.607ZM318.194 353.06H314.413V345.497H318.194V353.06Z" fill="white"/>
<path d="M290.781 343.607H285.11C284.588 343.607 284.165 344.03 284.165 344.552V354.005C284.165 354.527 284.588 354.95 285.11 354.95H290.781C291.303 354.95 291.727 354.527 291.727 354.005V344.552C291.727 344.03 291.303 343.607 290.781 343.607ZM289.836 353.06H286.055V345.497H289.836V353.06Z" fill="white"/>
<path d="M300.234 343.607H294.562C294.04 343.607 293.617 344.03 293.617 344.552V354.005C293.617 354.527 294.04 354.95 294.562 354.95H300.234C300.756 354.95 301.179 354.527 301.179 354.005V344.552C301.179 344.03 300.756 343.607 300.234 343.607ZM299.289 353.06H295.508V345.497H299.289V353.06Z" fill="white"/>
<path d="M328.592 343.607H322.92C322.398 343.607 321.975 344.03 321.975 344.552V354.005C321.975 354.527 322.398 354.95 322.92 354.95H328.592C329.114 354.95 329.537 354.527 329.537 354.005V344.552C329.537 344.03 329.114 343.607 328.592 343.607ZM327.647 353.06H323.866V345.497H327.647V353.06Z" fill="white"/>
</g>
<g clip-path="url(#clip3)">
<path d="M465.657 330.374C454.699 330.386 445.818 339.266 445.806 350.225V365.822C445.806 368.171 447.711 370.075 450.06 370.075H455.732C456.515 370.075 457.149 369.44 457.149 368.657V354.478C457.149 353.695 456.515 353.06 455.732 353.06H450.06C449.576 353.065 449.096 353.153 448.642 353.321V350.225C448.642 340.828 456.26 333.21 465.657 333.21C475.054 333.21 482.672 340.828 482.672 350.225V353.321C482.218 353.153 481.738 353.065 481.254 353.06H475.582C474.799 353.06 474.164 353.695 474.164 354.478V368.657C474.164 369.44 474.799 370.075 475.582 370.075H481.254C483.603 370.075 485.508 368.171 485.508 365.822V350.225C485.496 339.266 476.615 330.386 465.657 330.374ZM450.06 355.896H454.314V367.239H450.06C449.277 367.239 448.642 366.605 448.642 365.822V357.314C448.642 356.531 449.277 355.896 450.06 355.896ZM482.672 365.822C482.672 366.605 482.037 367.24 481.254 367.24H477V355.896H481.254C482.037 355.896 482.672 356.531 482.672 357.314V365.822Z" fill="white"/>
</g>
<path d="M80.6942 372.397H53.0449V321.866H66.8695H80.6942V372.397Z" stroke="white"/>
<rect x="56.8584" y="325.679" width="19.0685" height="1.90684" fill="white"/>
<rect x="56.8584" y="329.493" width="19.0685" height="1.90684" fill="white"/>
<circle cx="66.515" cy="362.276" r="3.54478" fill="#C4C4C4"/>
</g>
<rect x="34.6118" y="8.50745" width="9.92537" height="9.92537" fill="#60586A"/>
<path d="M58.6424 14.12C59.8624 14.12 60.8724 13.68 61.5324 12.87L60.4924 11.91C60.0224 12.46 59.4324 12.74 58.7324 12.74C57.4224 12.74 56.4924 11.82 56.4924 10.5C56.4924 9.18 57.4224 8.26 58.7324 8.26C59.4324 8.26 60.0224 8.54 60.4924 9.08L61.5324 8.12C60.8724 7.32 59.8624 6.88 58.6524 6.88C56.4724 6.88 54.8524 8.39 54.8524 10.5C54.8524 12.61 56.4724 14.12 58.6424 14.12ZM66.1199 14.12C68.3199 14.12 69.9499 12.59 69.9499 10.5C69.9499 8.41 68.3199 6.88 66.1199 6.88C63.9099 6.88 62.2899 8.42 62.2899 10.5C62.2899 12.58 63.9099 14.12 66.1199 14.12ZM66.1199 12.74C64.8699 12.74 63.9299 11.83 63.9299 10.5C63.9299 9.17 64.8699 8.26 66.1199 8.26C67.3699 8.26 68.3099 9.17 68.3099 10.5C68.3099 11.83 67.3699 12.74 66.1199 12.74ZM79.3074 14L79.2874 7H77.9574L75.3774 11.35L72.7574 7H71.4174V14H72.9374V9.89L74.9874 13.26H75.7174L77.7774 9.8L77.7874 14H79.3074ZM84.2482 7H81.2182V14H82.8382V12.07H84.2482C86.1182 12.07 87.2882 11.1 87.2882 9.54C87.2882 7.97 86.1182 7 84.2482 7ZM84.1582 10.75H82.8382V8.32H84.1582C85.1482 8.32 85.6482 8.77 85.6482 9.54C85.6482 10.3 85.1482 10.75 84.1582 10.75ZM90.3047 12.7V11.08H93.5547V9.82H90.3047V8.3H93.9847V7H88.6947V14H94.1147V12.7H90.3047ZM97.1037 14H98.7237V8.32H100.964V7H94.8637V8.32H97.1037V14ZM102.085 14H103.705V7H102.085V14ZM107.067 14H108.687V8.32H110.927V7H104.827V8.32H107.067V14ZM115.341 14.12C117.541 14.12 119.171 12.59 119.171 10.5C119.171 8.41 117.541 6.88 115.341 6.88C113.131 6.88 111.511 8.42 111.511 10.5C111.511 12.58 113.131 14.12 115.341 14.12ZM115.341 12.74C114.091 12.74 113.151 11.83 113.151 10.5C113.151 9.17 114.091 8.26 115.341 8.26C116.591 8.26 117.531 9.17 117.531 10.5C117.531 11.83 116.591 12.74 115.341 12.74ZM126.838 14L125.268 11.75C126.178 11.36 126.708 10.59 126.708 9.54C126.708 7.97 125.538 7 123.668 7H120.638V14H122.258V12.05H123.668H123.748L125.098 14H126.838ZM125.068 9.54C125.068 10.3 124.568 10.76 123.578 10.76H122.258V8.32H123.578C124.568 8.32 125.068 8.77 125.068 9.54Z" fill="white"/>
<rect x="193.418" y="9.92542" width="9.92537" height="9.92537" fill="#FF0000"/>
<path d="M217.449 15.538C218.669 15.538 219.679 15.098 220.339 14.288L219.299 13.328C218.829 13.878 218.239 14.158 217.539 14.158C216.229 14.158 215.299 13.238 215.299 11.918C215.299 10.598 216.229 9.67797 217.539 9.67797C218.239 9.67797 218.829 9.95797 219.299 10.498L220.339 9.53797C219.679 8.73797 218.669 8.29797 217.459 8.29797C215.279 8.29797 213.659 9.80797 213.659 11.918C213.659 14.028 215.279 15.538 217.449 15.538ZM226.483 8.41797V11.178H223.303V8.41797H221.683V15.418H223.303V12.548H226.483V15.418H228.103V8.41797H226.483ZM235.239 15.418H236.939L233.809 8.41797H232.209L229.089 15.418H230.749L231.369 13.918H234.619L235.239 15.418ZM231.889 12.688L232.999 10.008L234.109 12.688H231.889ZM237.915 15.418H243.045V14.098H239.535V8.41797H237.915V15.418ZM244.2 15.418H249.33V14.098H245.82V8.41797H244.2V15.418ZM252.095 14.118V12.498H255.345V11.238H252.095V9.71797H255.775V8.41797H250.485V15.418H255.905V14.118H252.095ZM262.264 8.41797V12.668L258.784 8.41797H257.444V15.418H259.044V11.168L262.534 15.418H263.864V8.41797H262.264ZM270.5 13.858C270.09 14.078 269.68 14.158 269.24 14.158C267.9 14.158 266.97 13.228 266.97 11.918C266.97 10.588 267.9 9.67797 269.26 9.67797C269.97 9.67797 270.56 9.92797 271.07 10.468L272.11 9.50797C271.43 8.71797 270.41 8.29797 269.18 8.29797C266.95 8.29797 265.33 9.80797 265.33 11.918C265.33 14.028 266.95 15.538 269.15 15.538C270.15 15.538 271.21 15.228 271.98 14.648V11.808H270.5V13.858ZM275.345 14.118V12.498H278.595V11.238H275.345V9.71797H279.025V8.41797H273.735V15.418H279.155V14.118H275.345ZM286.894 15.418L285.324 13.168C286.234 12.778 286.764 12.008 286.764 10.958C286.764 9.38797 285.594 8.41797 283.724 8.41797H280.694V15.418H282.314V13.468H283.724H283.804L285.154 15.418H286.894ZM285.124 10.958C285.124 11.718 284.624 12.178 283.634 12.178H282.314V9.73797H283.634C284.624 9.73797 285.124 10.188 285.124 10.958ZM294.73 15.538C295.95 15.538 296.96 15.098 297.62 14.288L296.58 13.328C296.11 13.878 295.52 14.158 294.82 14.158C293.51 14.158 292.58 13.238 292.58 11.918C292.58 10.598 293.51 9.67797 294.82 9.67797C295.52 9.67797 296.11 9.95797 296.58 10.498L297.62 9.53797C296.96 8.73797 295.95 8.29797 294.74 8.29797C292.56 8.29797 290.94 9.80797 290.94 11.918C290.94 14.028 292.56 15.538 294.73 15.538ZM302.207 15.538C304.407 15.538 306.037 14.008 306.037 11.918C306.037 9.82797 304.407 8.29797 302.207 8.29797C299.997 8.29797 298.377 9.83797 298.377 11.918C298.377 13.998 299.997 15.538 302.207 15.538ZM302.207 14.158C300.957 14.158 300.017 13.248 300.017 11.918C300.017 10.588 300.957 9.67797 302.207 9.67797C303.457 9.67797 304.397 10.588 304.397 11.918C304.397 13.248 303.457 14.158 302.207 14.158ZM315.395 15.418L315.375 8.41797H314.045L311.465 12.768L308.845 8.41797H307.505V15.418H309.025V11.308L311.075 14.678H311.805L313.865 11.218L313.875 15.418H315.395ZM320.336 8.41797H317.306V15.418H318.926V13.488H320.336C322.206 13.488 323.376 12.518 323.376 10.958C323.376 9.38797 322.206 8.41797 320.336 8.41797ZM320.246 12.168H318.926V9.73797H320.246C321.236 9.73797 321.736 10.188 321.736 10.958C321.736 11.718 321.236 12.168 320.246 12.168ZM327.863 15.538C329.853 15.538 331.033 14.398 331.033 12.338V8.41797H329.433V12.278C329.433 13.608 328.863 14.158 327.873 14.158C326.893 14.158 326.313 13.608 326.313 12.278V8.41797H324.693V12.338C324.693 14.398 325.873 15.538 327.863 15.538ZM334.217 15.418H335.837V9.73797H338.077V8.41797H331.977V9.73797H334.217V15.418ZM340.808 14.118V12.498H344.058V11.238H340.808V9.71797H344.488V8.41797H339.198V15.418H344.618V14.118H340.808ZM352.357 15.418L350.787 13.168C351.697 12.778 352.227 12.008 352.227 10.958C352.227 9.38797 351.057 8.41797 349.187 8.41797H346.157V15.418H347.777V13.468H349.187H349.267L350.617 15.418H352.357ZM350.587 10.958C350.587 11.718 350.087 12.178 349.097 12.178H347.777V9.73797H349.097C350.087 9.73797 350.587 10.188 350.587 10.958ZM356.061 15.538C358.061 15.538 359.031 14.538 359.031 13.368C359.031 10.798 354.961 11.688 354.961 10.398C354.961 9.95797 355.331 9.59797 356.291 9.59797C356.911 9.59797 357.581 9.77797 358.231 10.148L358.731 8.91797C358.081 8.50797 357.181 8.29797 356.301 8.29797C354.311 8.29797 353.351 9.28797 353.351 10.478C353.351 13.078 357.421 12.178 357.421 13.488C357.421 13.918 357.031 14.238 356.071 14.238C355.231 14.238 354.351 13.938 353.761 13.508L353.211 14.728C353.831 15.208 354.951 15.538 356.061 15.538Z" fill="white"/>
<defs>
<linearGradient id="paint0_linear" x1="573.378" y1="132.73" x2="16.2481" y2="134.29" gradientUnits="userSpaceOnUse">
<stop stop-color="#4E3E64"/>
<stop offset="1" stop-color="#6F6F6F"/>
</linearGradient>
<clipPath id="clip0">
<rect width="51.0448" height="51.0448" fill="white" transform="matrix(1 0 0 -1 123.94 372.91)"/>
</clipPath>
<clipPath id="clip1">
<rect width="42.5373" height="42.5373" fill="white" transform="matrix(1 0 0 -1 369.239 372.91)"/>
</clipPath>
<clipPath id="clip2">
<rect width="56.7164" height="56.7164" fill="white" transform="translate(278.493 323.284)"/>
</clipPath>
<clipPath id="clip3">
<rect width="39.7015" height="39.7011" fill="white" transform="translate(445.806 330.374)"/>
</clipPath>
</defs>
</svg>
