<svg width="88" height="103" viewBox="0 0 88 103" fill="none" xmlns="http://www.w3.org/2000/svg">
<path d="M44.158 7.98706L6.98096 45.1641V57.7111L35.055 85.7851L44.155 94.8851L81.3319 57.7081V45.1611L44.158 7.98706Z" stroke="#D8012B"/>
<path d="M44.155 1L1 44.1551V58.72L33.588 91.308L44.154 101.874L87.309 58.7191V44.154L44.155 1Z" stroke="#4F000F"/>
<path opacity="0.26" d="M44.158 13.1479L11.397 45.909V56.966L36.136 81.705L44.158 89.726L76.919 56.965V45.908L44.158 13.1479Z" fill="#F60030" stroke="#4F000F"/>
<path d="M34.0044 38.8143L43.2205 47.1315L52.6618 38.8143C52.6618 38.8143 47.8841 35.6672 43.2205 35.6672C38.557 35.6672 34.0044 38.8143 34.0044 38.8143Z" fill="white" fill-opacity="0.31"/>
<path d="M55.8525 42.0048L47.5353 51.2209L55.8525 60.662C55.8525 60.662 58.9995 55.8842 58.9995 51.2209C58.9995 46.5576 55.8525 42.0048 55.8525 42.0048Z" fill="white"/>
<path d="M52.6626 63.853L43.4465 55.5357L34.0053 63.853C34.0053 63.853 38.7831 67 43.4465 67C48.1098 67 52.6626 63.853 52.6626 63.853Z" fill="white" fill-opacity="0.31"/>
<path d="M30.8145 60.6622L39.1317 51.4461L30.8145 42.0049C30.8145 42.0049 27.6675 46.7828 27.6675 51.4461C27.6675 56.1094 30.8145 60.6622 30.8145 60.6622Z" fill="white"/>
</svg>
