<svg width="88" height="103" viewBox="0 0 88 103" fill="none" xmlns="http://www.w3.org/2000/svg">
<path d="M44.158 7.98706L6.98096 45.1641V57.7111L35.055 85.7851L44.155 94.8851L81.3319 57.7081V45.1611L44.158 7.98706Z" stroke="#D8012B"/>
<path d="M44.155 1L1 44.1551V58.72L33.588 91.308L44.154 101.874L87.309 58.7191V44.154L44.155 1Z" stroke="#4F000F"/>
<path opacity="0.26" d="M44.158 13.1479L11.397 45.909V56.966L36.136 81.705L44.158 89.726L76.919 56.965V45.908L44.158 13.1479Z" fill="#F60030" stroke="#4F000F"/>
<path d="M34.3273 49.6156V52H27L39.3375 28L52 52H44.7258V49.3046H47.6356L39.3375 34.1168L31.633 49.6156H34.3273Z" fill="white"/>
<path d="M52.9661 52.3859V50.0015H60L48.156 74L36 50H42.984V52.6954H40.1904L48.156 67.8832L55.5524 52.3859H52.9661Z" fill="white"/>
</svg>
