<svg width="88" height="88" viewBox="0 0 88 88" fill="none" xmlns="http://www.w3.org/2000/svg">
<path d="M50.4534 62.0654C46.4585 63.3985 42.0519 63.3982 38.0456 62.0649C36.9231 61.6911 35.711 62.2983 35.3377 63.4203C34.9642 64.5424 35.5711 65.7549 36.6933 66.1284C39.133 66.9404 41.6942 67.3462 44.2546 67.3462C46.8151 67.3462 49.375 66.9399 51.809 66.1278C52.9307 65.7535 53.5367 64.5407 53.1623 63.4187C52.7881 62.2971 51.5754 61.6914 50.4534 62.0654V62.0654Z" fill="#00CEB3"/>
<path d="M69.1956 20.8991C68.2843 14.3623 62.6713 9.20283 55.7192 9.20283H53.2733V9.05051C53.2733 7.86793 52.3145 6.90918 51.1319 6.90918H37.3703C36.1877 6.90918 35.2289 7.86793 35.2289 9.05051V9.20269H32.7831C25.8893 9.20269 20.2686 14.2902 19.3127 20.8975C15.2987 21.811 12.293 25.4063 12.293 29.6928V48.0418C12.293 53.9099 17.0729 56.3015 19.244 56.8175C20.2245 70.028 31.317 80.0001 44.2511 80.0001C57.4411 80.0001 68.2852 69.7638 69.2572 56.8181C74.8852 55.4819 76.2092 50.3758 76.2092 48.0419V29.693C76.2094 25.4086 73.2065 21.8147 69.1956 20.8991V20.8991ZM53.2733 13.4854H55.7191C61.7779 13.4854 64.2809 18.4391 64.8012 20.6708H53.2733V13.4854ZM39.5116 11.1918H48.9906V20.6708H39.5116V11.1918ZM32.7831 13.4854H35.2289V20.6708H23.7099C25.0987 14.8527 30.3695 13.4854 32.7831 13.4854V13.4854ZM44.2511 75.7174C33.6822 75.7174 24.6479 67.7108 23.5652 57.0639H34.1249C36.7526 57.0639 39.3236 55.9991 41.1787 54.1426C41.1897 54.1316 41.2006 54.1205 41.2114 54.1092C42.017 53.3212 43.1222 52.8702 44.2511 52.8702C45.3803 52.8702 46.4855 53.3213 47.2909 54.1093C47.3016 54.1205 47.3125 54.1316 47.3236 54.1426C49.1787 55.9991 51.7498 57.0639 54.3776 57.0639H64.9362C63.8609 67.5281 54.9945 75.7174 44.2511 75.7174V75.7174ZM71.9267 48.0419C71.9267 50.692 69.7667 52.7813 67.1872 52.7813H54.3776C52.8941 52.7813 51.4428 52.1873 50.3879 51.1499C50.3763 51.1377 50.3646 51.1257 50.3528 51.1137C48.7473 49.5083 46.5235 48.5875 44.2512 48.5875C41.9791 48.5875 39.7553 49.5083 38.1499 51.1137C38.138 51.1256 38.1262 51.1376 38.1146 51.1497C37.0595 52.1873 35.6082 52.7813 34.1249 52.7813H21.315C18.7437 52.7813 16.5755 50.701 16.5755 48.0419V29.693C16.5755 27.0797 18.7017 24.9536 21.315 24.9536H67.1871C69.8005 24.9536 71.9266 27.0798 71.9266 29.693V48.0419H71.9267Z" fill="#00CEB3"/>
</svg>
