<svg height="512pt" viewBox="0 -11 512 512" width="512pt" xmlns="http://www.w3.org/2000/svg"><path d="m328.328125 489.839844h-277.242187c-28.214844 0-51.085938-22.871094-51.085938-51.085938v-296.921875c0-16.746093 6.652344-32.804687 18.492188-44.648437l78.695312-78.691406c11.839844-11.839844 27.898438-18.492188 44.644531-18.492188h186.496094c28.214844 0 51.085937 22.871094 51.085937 51.085938v387.667968c0 28.214844-22.871093 51.085938-51.085937 51.085938zm0 0" fill="#5ad6ff"/><path d="m379.414062 438.753906v-101.09375h-143.234374s-26.851563 64.234375 12.074218 152.179688h80.074219c28.214844 0 51.085937-22.871094 51.085937-51.085938zm0 0" fill="#00c5fd"/><path d="m97.1875 18.492188-78.695312 78.691406c-11.839844 11.84375-18.492188 27.902344-18.492188 44.648437v108.328125c22.300781-43.320312 49.910156-29.9375 121.050781-52.867187 73.90625-23.820313 64.929688-157.9375 60.625-197.292969h-39.84375c-16.746093 0-32.804687 6.652344-44.644531 18.492188zm0 0" fill="#00c5fd"/><path d="m313.089844 184.085938h-246.765625c-8.65625 0-15.667969-7.015626-15.667969-15.667969 0-8.652344 7.011719-15.667969 15.667969-15.667969h246.765625c8.652344 0 15.667968 7.015625 15.667968 15.667969 0 8.652343-7.015624 15.667969-15.667968 15.667969zm0 0" fill="#6a829a"/><path d="m66.324219 152.75c-8.65625 0-15.667969 7.015625-15.667969 15.667969 0 8.652343 7.011719 15.667969 15.667969 15.667969h78.160156c9.535156-8.238282 16.890625-19.035157 22.550781-31.332032h-100.710937zm0 0" fill="#516980"/><g fill="#6a829a"><path d="m313.089844 252.492188h-246.765625c-8.65625 0-15.667969-7.015626-15.667969-15.667969 0-8.65625 7.011719-15.667969 15.667969-15.667969h246.765625c8.652344 0 15.667968 7.011719 15.667968 15.667969 0 8.652343-7.015624 15.667969-15.667968 15.667969zm0 0"/><path d="m313.089844 320.898438h-246.765625c-8.65625 0-15.667969-7.015626-15.667969-15.667969 0-8.65625 7.011719-15.667969 15.667969-15.667969h246.765625c8.652344 0 15.667968 7.011719 15.667968 15.667969 0 8.652343-7.015624 15.667969-15.667968 15.667969zm0 0"/><path d="m313.089844 389.300781h-246.765625c-8.65625 0-15.667969-7.011719-15.667969-15.667969 0-8.652343 7.011719-15.667968 15.667969-15.667968h246.765625c8.652344 0 15.667968 7.015625 15.667968 15.667968 0 8.65625-7.015624 15.667969-15.667968 15.667969zm0 0"/></g><path d="m313.089844 357.964844h-82.507813c-1.621093 8.269531-3.042969 18.839844-3.359375 31.335937h85.867188c8.652344 0 15.667968-7.015625 15.667968-15.667969 0-8.652343-7.015624-15.667968-15.667968-15.667968zm0 0" fill="#516980"/><path d="m18.449219 97.234375c-5.378907 5.386719-9.683594 11.648437-12.777344 18.445313h77.480469c17.964844 0 32.527344-14.5625 32.527344-32.527344v-77.480469c-6.808594 3.097656-13.082032 7.414063-18.476563 12.804687zm0 0" fill="#a4e7ff"/><path d="m504.355469 474.578125c-10.195313 10.195313-26.726563 10.195313-36.921875 0l-79.273438-79.277344 36.917969-36.917969 79.277344 79.277344c10.191406 10.195313 10.191406 26.722656 0 36.917969zm0 0" fill="#6a829a"/><path d="m455.113281 402.296875-23.042969 23.039063c-13.886718 13.886718-36.40625 13.886718-50.292968 0l-16.328125-16.328126 73.335937-73.332031 16.328125 16.328125c13.886719 13.886719 13.886719 36.402344 0 50.292969zm0 0" fill="#f4e74d"/><path d="m445.824219 309.320312c0 58.945313-47.785157 106.730469-106.730469 106.730469s-106.730469-47.785156-106.730469-106.730469c0-58.945312 47.785157-106.730468 106.730469-106.730468s106.730469 47.785156 106.730469 106.730468zm0 0" fill="#889cb0"/><path d="m387.628906 357.851562c-26.765625 26.761719-70.308594 26.761719-97.070312 0-26.757813-26.761718-26.757813-70.304687 0-97.066406 26.761718-26.761718 70.308594-26.761718 97.070312 0 26.757813 26.761719 26.757813 70.304688 0 97.066406zm0 0" fill="#76e7e7"/><path d="m348.527344 278.191406 6.152344 12.460938 13.75 2c8.628906 1.253906 12.074218 11.855468 5.828124 17.941406l-9.949218 9.699219 2.347656 13.695312c1.476562 8.59375-7.542969 15.148438-15.261719 11.089844l-12.300781-6.464844-12.300781 6.464844c-7.714844 4.058594-16.734375-2.496094-15.261719-11.089844l2.347656-13.695312-9.949218-9.699219c-6.246094-6.085938-2.796876-16.6875 5.828124-17.941406l13.753907-2 6.148437-12.460938c3.859375-7.820312 15.007813-7.820312 18.867188 0zm0 0" fill="#fffcdc"/></svg>